<svg xmlns="http://www.w3.org/2000/svg" xmlns:xlink="http://www.w3.org/1999/xlink" width="375" height="198.582" viewBox="0 0 375 198.582">
  <defs>
    <clipPath id="clip-path">
      <path id="Path_129" data-name="Path 129" d="M0-32.076H212.009V-168.2H0Z" transform="translate(0 168.204)" fill="none"/>
    </clipPath>
  </defs>
  <g id="Group_139" data-name="Group 139" transform="translate(0 -34.418)">
    <g id="Rectangle_7" data-name="Rectangle 7" transform="translate(0 143)" fill="#727c16" stroke="#707070" stroke-width="1">
      <rect width="375" height="90" stroke="none"/>
      <rect x="0.5" y="0.5" width="374" height="89" fill="none"/>
    </g>
    <g id="Group_117" data-name="Group 117" transform="translate(-2955 331.474)">
      <g id="Group_92" data-name="Group 92" transform="translate(2974.255 -128.952)">
        <path id="Path_130" data-name="Path 130" d="M0,0V.705H3.945V10.892H5.777V.705H9.721V0Z" fill="#fff"/>
      </g>
      <path id="Path_131" data-name="Path 131" d="M0,0H1.833V7.073a3.577,3.577,0,0,0,.238,1.306,3.185,3.185,0,0,0,1.75,1.8,3.529,3.529,0,0,0,1.4.268,3.548,3.548,0,0,0,1.406-.268,3.132,3.132,0,0,0,1.737-1.8A3.629,3.629,0,0,0,8.6,7.073V0h.809V7.073a4.572,4.572,0,0,1-.271,1.576,3.348,3.348,0,0,1-.851,1.3,4.145,4.145,0,0,1-1.486.882,6.383,6.383,0,0,1-2.162.327,5.676,5.676,0,0,1-2-.327,4.191,4.191,0,0,1-1.455-.887A3.676,3.676,0,0,1,.3,8.631a4.273,4.273,0,0,1-.3-1.6Z" transform="translate(2990.798 -128.952)" fill="#fff"/>
      <path id="Path_132" data-name="Path 132" d="M.5,1.324A5.756,5.756,0,0,0,.84,3.379a4.466,4.466,0,0,0,.946,1.537,4.1,4.1,0,0,0,1.425.965A4.717,4.717,0,0,0,5,6.214,2.846,2.846,0,0,0,6.1,5.993a4.14,4.14,0,0,0,.99-.582A5.061,5.061,0,0,0,7.91,4.6,5.165,5.165,0,0,0,8.5,3.695l.765.5a7.471,7.471,0,0,1-.795,1.055,5.12,5.12,0,0,1-1.059.9,5.643,5.643,0,0,1-1.361.622A5.706,5.706,0,0,1,4.362,7,6.452,6.452,0,0,1,1.9,6.544,5.824,5.824,0,0,1,0,5.315a5.473,5.473,0,0,1-1.22-1.8A5.631,5.631,0,0,1-1.65,1.324a5.645,5.645,0,0,1,.2-1.492A5.562,5.562,0,0,1-.876-1.525,5.726,5.726,0,0,1,.031-2.689,5.634,5.634,0,0,1,1.242-3.6a6.318,6.318,0,0,1,1.486-.587A6.677,6.677,0,0,1,4.448-4.4a5.293,5.293,0,0,1,2.94.851,5.577,5.577,0,0,1,1.073.9A7.068,7.068,0,0,1,9.27-1.6l-.791.532A5.414,5.414,0,0,0,6.95-3.006,3.222,3.222,0,0,0,5-3.618a4.522,4.522,0,0,0-1.763.345,4.178,4.178,0,0,0-1.432.98A4.646,4.646,0,0,0,.848-.738,5.7,5.7,0,0,0,.5,1.324" transform="translate(3019.285 -124.793)" fill="#fff"/>
      <g id="Group_96" data-name="Group 96" transform="translate(3036.149 -128.952)">
        <path id="Path_134" data-name="Path 134" d="M0,0V10.892H7.573v-.7H1.833V5.31H5.673v-.7H1.833V.705h5.74V0Z" fill="#fff"/>
      </g>
      <g id="Group_97" data-name="Group 97" transform="translate(3051.085 -128.952)">
        <path id="Path_135" data-name="Path 135" d="M1.905,0V7.965H1.836L-5.3,0H-6.329V10.892H-5.5V2.3h.061l7.73,8.86h.425V0Z" transform="translate(6.329)" fill="#fff"/>
      </g>
      <path id="Path_136" data-name="Path 136" d="M0,0V.705H3.945V10.892H5.777V.705H9.721V0Z" transform="translate(3067.14 -128.952)" fill="#fff"/>
      <path id="Path_137" data-name="Path 137" d="M0,0H3.769A6.4,6.4,0,0,1,5.494.212,3.707,3.707,0,0,1,6.73.807a2.4,2.4,0,0,1,.743.9,2.61,2.61,0,0,1,.249,1.138,2.377,2.377,0,0,1-.193.955,2.538,2.538,0,0,1-.543.8,3.4,3.4,0,0,1-.842.615,4.446,4.446,0,0,1-1.09.4l3.962,5.278H6.9L3.117,5.777H1.832v5.116H0ZM1.832,5.23h1.06a3.7,3.7,0,0,0,1.137-.165,2.835,2.835,0,0,0,.9-.464,2.087,2.087,0,0,0,.6-.73A2.155,2.155,0,0,0,5.742,2.9a2.313,2.313,0,0,0-.169-.894,1.986,1.986,0,0,0-.479-.7,2.238,2.238,0,0,0-.73-.459A2.58,2.58,0,0,0,3.44.688H1.832Z" transform="translate(3083.874 -128.952)" fill="#fff"/>
      <path id="Path_138" data-name="Path 138" d="M1.391,2.637A6.176,6.176,0,0,1-.225,2.427a6.22,6.22,0,0,1-1.442-.583A5.842,5.842,0,0,1-2.883.94,5.755,5.755,0,0,1-3.816-.227a5.49,5.49,0,0,1-.6-1.377,5.586,5.586,0,0,1-.209-1.527,5.28,5.28,0,0,1,.464-2.2A5.689,5.689,0,0,1-2.883-7.12a6.009,6.009,0,0,1,1.906-1.2,6.378,6.378,0,0,1,2.368-.436,6.451,6.451,0,0,1,1.615.2A6.223,6.223,0,0,1,4.445-8a6.141,6.141,0,0,1,1.211.878A5.634,5.634,0,0,1,6.59-5.983a5.464,5.464,0,0,1,.595,1.348,5.371,5.371,0,0,1,.208,1.5A5.585,5.585,0,0,1,7.185-1.6,5.534,5.534,0,0,1,6.59-.227,5.806,5.806,0,0,1,5.656.94a5.913,5.913,0,0,1-1.211.9,6.154,6.154,0,0,1-1.439.583,6.166,6.166,0,0,1-1.615.209m0-.549A3.357,3.357,0,0,0,3.037,1.7,3.469,3.469,0,0,0,4.244.607a5.1,5.1,0,0,0,.743-1.654A8.17,8.17,0,0,0,5.24-3.131a7.915,7.915,0,0,0-.252-2.058A4.86,4.86,0,0,0,4.244-6.8a3.418,3.418,0,0,0-1.207-1.05,3.469,3.469,0,0,0-1.646-.375,3.557,3.557,0,0,0-1.677.375A3.374,3.374,0,0,0-1.493-6.8a4.874,4.874,0,0,0-.734,1.608,8.093,8.093,0,0,0-.247,2.058,8.354,8.354,0,0,0,.247,2.084A5.113,5.113,0,0,0-1.493.607,3.424,3.424,0,0,0-.286,1.7a3.442,3.442,0,0,0,1.677.392" transform="translate(3103.741 -120.433)" fill="#fff"/>
      <path id="Path_139" data-name="Path 139" d="M0,0H3.622A11.409,11.409,0,0,1,6.509.319a5.076,5.076,0,0,1,3.4,2.8,5.3,5.3,0,0,1,.464,2.234,5.607,5.607,0,0,1-.416,2.16,5.032,5.032,0,0,1-1.22,1.764,5.871,5.871,0,0,1-1.98,1.187,7.808,7.808,0,0,1-2.7.431H0ZM1.832,10.095H3.769a4.9,4.9,0,0,0,1.742-.306,3.957,3.957,0,0,0,1.416-.9,4.256,4.256,0,0,0,.951-1.478,5.471,5.471,0,0,0,.347-2.023,5.019,5.019,0,0,0-.33-1.842,4.355,4.355,0,0,0-.92-1.452,4.223,4.223,0,0,0-1.4-.946A4.633,4.633,0,0,0,3.786.809H1.832Z" transform="translate(3128.758 -128.952)" fill="#fff"/>
      <path id="Path_141" data-name="Path 141" d="M0,0V10.892H7.572v-.7H1.832V5.31H5.671v-.7H1.832V.705h5.74V0Z" transform="translate(3146.733 -128.952)" fill="#fff"/>
      <path id="Path_142" data-name="Path 142" d="M1.427,1.8a6.389,6.389,0,0,1-.109,1.175A2.518,2.518,0,0,1,.879,4.01a2.31,2.31,0,0,1-.943.739,3.882,3.882,0,0,1-1.611.284,4.628,4.628,0,0,1-1.015-.1,4.491,4.491,0,0,1-.826-.275,4.2,4.2,0,0,1-.673-.38c-.2-.146-.384-.286-.552-.432l.572-.772c.121.095.268.217.44.363a6.371,6.371,0,0,0,.55.42,3.79,3.79,0,0,0,.622.347,1.623,1.623,0,0,0,.656.144,1.518,1.518,0,0,0,1.107-.38A1.359,1.359,0,0,0-.406,2.947V-5.976H1.427Z" transform="translate(3175.185 -122.976)" fill="#fff"/>
      <path id="Path_144" data-name="Path 144" d="M1.214,0-4.032,11.132h.921L-1.392,7.5H3.272l1.669,3.63H6.8L1.676,0ZM.961,2.49,2.934,6.8h-4Z" transform="translate(3187.378 -129.192)" fill="#fff"/>
      <path id="Path_145" data-name="Path 145" d="M0,0H3.77A6.4,6.4,0,0,1,5.494.212,3.707,3.707,0,0,1,6.73.807a2.416,2.416,0,0,1,.744.9,2.609,2.609,0,0,1,.247,1.138,2.4,2.4,0,0,1-.191.955,2.564,2.564,0,0,1-.544.8,3.38,3.38,0,0,1-.842.615,4.426,4.426,0,0,1-1.09.4l3.962,5.278H6.9L3.117,5.777H1.832v5.116H0ZM1.832,5.23h1.06a3.71,3.71,0,0,0,1.138-.165,2.828,2.828,0,0,0,.9-.464,2.087,2.087,0,0,0,.6-.73A2.155,2.155,0,0,0,5.742,2.9a2.313,2.313,0,0,0-.169-.894,1.986,1.986,0,0,0-.479-.7A2.246,2.246,0,0,0,4.365.851,2.587,2.587,0,0,0,3.44.688H1.832Z" transform="translate(3200.914 -128.952)" fill="#fff"/>
      <path id="Path_146" data-name="Path 146" d="M0,0H3.622A11.409,11.409,0,0,1,6.509.319a5.076,5.076,0,0,1,3.4,2.8,5.3,5.3,0,0,1,.464,2.234,5.607,5.607,0,0,1-.416,2.16,5.032,5.032,0,0,1-1.22,1.764,5.871,5.871,0,0,1-1.98,1.187,7.808,7.808,0,0,1-2.7.431H0ZM1.832,10.095H3.77a4.9,4.9,0,0,0,1.741-.306,3.957,3.957,0,0,0,1.416-.9,4.256,4.256,0,0,0,.951-1.478,5.471,5.471,0,0,0,.347-2.023,5.019,5.019,0,0,0-.33-1.842,4.355,4.355,0,0,0-.92-1.452,4.223,4.223,0,0,0-1.4-.946A4.633,4.633,0,0,0,3.786.809H1.832Z" transform="translate(3216.631 -128.952)" fill="#fff"/>
      <path id="Path_148" data-name="Path 148" d="M200.191,2.318h1.832V-8.574h-1.832Z" transform="translate(3034.415 -120.377)" fill="#fff"/>
      <path id="Path_149" data-name="Path 149" d="M1.905,0V7.965H1.838L-5.3,0H-6.329V10.892H-5.5V2.3h.062l7.73,8.86h.425V0Z" transform="translate(3250.84 -128.952)" fill="#fff"/>
      <path id="Path_150" data-name="Path 150" d="M0,0V10.892H7.573v-.7H1.832V5.31H5.673v-.7H1.832V.705H7.573V0Z" transform="translate(3261.618 -128.952)" fill="#fff"/>
      <path id="Path_151" data-name="Path 151" d="M0,0H3.769A6.4,6.4,0,0,1,5.494.212,3.707,3.707,0,0,1,6.73.807a2.4,2.4,0,0,1,.743.9,2.61,2.61,0,0,1,.249,1.138,2.377,2.377,0,0,1-.193.955,2.538,2.538,0,0,1-.543.8,3.4,3.4,0,0,1-.842.615,4.446,4.446,0,0,1-1.09.4l3.962,5.278H6.9L3.117,5.777H1.832v5.116H0ZM1.832,5.23h1.06a3.71,3.71,0,0,0,1.138-.165,2.842,2.842,0,0,0,.9-.464,2.087,2.087,0,0,0,.6-.73A2.155,2.155,0,0,0,5.742,2.9a2.313,2.313,0,0,0-.169-.894,1.986,1.986,0,0,0-.479-.7,2.238,2.238,0,0,0-.73-.459A2.58,2.58,0,0,0,3.44.688H1.832Z" transform="translate(3276.554 -128.952)" fill="#fff"/>
      <path id="Path_153" data-name="Path 153" d="M244.513,2.318h1.832V-8.574h-1.832Z" transform="translate(3047.759 -120.377)" fill="#fff"/>
      <path id="Path_154" data-name="Path 154" d="M1.214,0-4.031,11.132h.917L-1.392,7.5H3.273l1.669,3.63H6.8L1.673,0ZM.961,2.49,2.932,6.8h-4Z" transform="translate(3304.88 -129.192)" fill="#fff"/>
    </g>
    <g id="Group_123" data-name="Group 123" transform="translate(-101 -58)">
      <g id="Group_122" data-name="Group 122" transform="translate(169 92.418)">
        <g id="Group_115" data-name="Group 115" transform="translate(0 0)">
          <g id="Group_74" data-name="Group 74" transform="translate(19.861 19.913)">
            <path id="Path_111" data-name="Path 111" d="M-2.591-1.306c-3.9,4.827-6.054,12.8-13.414,20.285a45.2,45.2,0,0,1-4.748,3.907A48.511,48.511,0,0,1-22.3,17.05c-2.168-11.972-4.532-49.634-4.532-49.634S-31.48,6.311-30.728,19.582c.309,5.419,2.2,11.154,3.989,17.787-2.378-.44-4.62-.807-5.916-.892a55.9,55.9,0,0,0-6.719.313c-1.06-2.411-2.917-6.591-3.752-8.154-1.12-2.094-3.776-5.662-4.688-7.715-1.346-3.041-4.738-13.113-4.738-13.113s2.156,11.206,3.334,14.764c1.01,3.04,3.443,5.664,4.769,11.1a33.254,33.254,0,0,1,.528,3.347,12.5,12.5,0,0,1-2.345-.19c-4.625-.939-18.379-6.382-18.379-6.382s12.931,9.562,17.759,11.524c4.126,1.681,9.989-.26,16.677,3.772a44.931,44.931,0,0,1,6.334,5.75A68.882,68.882,0,0,1-23.5,63.031c-.374,7.315-5.563,26.15-5.563,26.15s7.195,2.732,13.681,2.387c3.038-.159,11.938-2.36,11.938-2.36s-5.112-30.137-7.656-39.4c-1.147-4.187-3.483-10.13-5.745-16.064,2.9-4.465,7.9-12.253,9.656-15.507C-4.831,13.875-1.4,4.633,1.06.8,4.7-4.856,17.592-20.989,17.592-20.989S1.976-6.96-2.591-1.306" transform="translate(64.646 32.584)" fill="#737b17"/>
          </g>
          <g id="Group_75" data-name="Group 75" transform="translate(1.386 45.247)">
            <path id="Path_112" data-name="Path 112" d="M-1.73-2.11C-1.388,10.542-27.037,8.832-33.877,6.1c-13.34-5.472-11.288-34.2-.342-26.675-6.5,1.026-8.894-9.918-7.184-14.365,2.393-5.813,16.074-13.335,20.521-6.5-4.1-9.92,21.2-18.125,25.307-2.395,1.711,5.473-.342,11.97-5.472,14.365,3.419,0,5.472,3.078,5.472,6.157C4.084-18.87-.021-18.87-1.73-16.473c-2.052,4.1,1.71,9.916,1.368,14.7-.683.683-.683-.341-1.368-.341" transform="translate(43.166 52.647)" fill="#737b17"/>
          </g>
          <g id="Group_76" data-name="Group 76" transform="translate(0 44.293)">
            <path id="Path_113" data-name="Path 113" d="M-1.7-2.159c-.741,11-21.485,10.233-28.95,6.637-4.693-2.26-7.029-7.118-7.959-12.029C-39.04-9.813-40-23.372-33.746-19.795l2.371-2.33c-4.747-.084-6.617-6.22-6.311-10.09.49-6.2,11.066-15.179,17-8.662.862.946,4.392.206,3.93-1.382-2.12-7.3,8.385-10.635,13.828-8.981C5.927-48.547,8.12-35.735-.264-30.463c-.828.521-1.124,1.65.073,1.926q7.068,1.3,2.05,8.909a9.7,9.7,0,0,0-1.908,1.25c-.351.707-1.264,1.111-1.653,1.856C-3.981-12.154-.553-6-.325-1.492L1.962-3.3c0-.045,0-.09,0-.136C.692-4.224-3.027-2.427-1.258-1.324a3.482,3.482,0,0,0,2.731.545C2.419-.9,3.818-1.434,3.76-2.586,3.6-5.821,1.65-9.6,1.911-12.719c.516-6.174,3.5-4.638,5.651-8.247a6.468,6.468,0,0,0,.987-3.166c.1-3.056-2.9-3.778-3.33-5.916-.228-1.128,1.561-2.359,2.713-4.85A14.551,14.551,0,0,0,6.874-48.517c-6.2-9.408-31.623-6.084-27.719,7.352l3.929-1.382c-6.071-6.67-17.958-1.449-22.639,4.674-4.7,6.148-2.151,18.14,6.651,18.3.792.014,4.207-1.279,2.371-2.33-15.15-8.671-14.384,20.084-6.031,26.859C-27.884,11.991,1.4,12.265,2.4-2.6c.123-1.827-4-1.1-4.1.442" transform="translate(42.473 53.871)" fill="#737b17"/>
          </g>
          <g id="Group_77" data-name="Group 77" transform="translate(17.13 1.197)">
            <path id="Path_114" data-name="Path 114" d="M-.644-1.907C-8.852-4.643-18.086-10.8-15.691-21.057-13.639-29.951-2.7-37.475,6.537-34.4,4.485-45.34,24.321-49.1,31.163-47.049c6.5,1.71,19.151,13.681,7.867,18.125,2.736-4.789,21.2-5.814,21.887,2.051.342,4.445-9.919,7.867-13.68,8.209,2.735-1.025,7.18.339,8.551,3.761C58.585-7.916,47.026-4.519,44.342.629c-3.94,7.559,2.453,17.431,9.014,21,6.289,3.413,15.413,3.685,19.871-3.042,1.425-2.156,2.541-8.13-1.373-8.515C77.722,15.789,86.94,8.38,87.562,2.045c.766-7.84-1.989-21.326-12.554-19.98-.231,1.608.837,1.7,2.291,2.315,5.1,2.164,9.713-2.355,10.275-7.063,1.014-8.477-5.128-17.349-14.328-15.169-7.221,1.715-16.045-.09-21.812,6.612-4.13,4.8-4.43,13.544.867,17.6-8.517,5.1-7.51,11.7-10.444,19.672-1.816,4.924-6.629,7.014-11.4,8.1-2.414.545-12.558,3.586-13.569,1.1-.511,3.355-3.8,3.658-6.621,2.356-3.671-1.7-4.724-4.73-4.333-8.542.606,3.613-7.868,1.491-9.17-1.491-.993-2.267-.628-8.734,2.256-9.457" transform="translate(16.076 47.585)" fill="#737b17"/>
          </g>
          <g id="Group_78" data-name="Group 78" transform="translate(15.152 0)">
            <path id="Path_115" data-name="Path 115" d="M-.795-1.916C-6.03-3.867-12.523-6.871-14.784-12.49-19-22.976-8.124-34.987,3.506-32.329c.976.224,3.4-.3,3.3-1.644-.7-9.128,12.628-12.831,20-11.309,5.381,1.113,19.333,11.414,9.191,16.738l3.163.627c2.759-3.347,9.39-3.195,13.088-1.942,8.633,2.927-.522,10.1-6.5,11.052-1.923.308-3.414,2.635-.566,2.23Q56.114-10.619,48.707-5.8L46.924-4.4C45.311-3.052,43.28-1.924,41.978-.221a12,12,0,0,0-2.664,7.655c.045,8.455,7.726,16.084,15.54,18.026,5.533,1.376,12.355.572,16.581-3.595,3.149-3.105,5.583-9.711.269-11.808-.836-.33-4.795.889-3.525,1.775,19.2,13.405,29.7-30.528,5.849-29.941-.661.016-3.239.5-2.84,1.691,3,8.945,15.522.387,16.649-5.556A15.066,15.066,0,0,0,82.406-35.9c-5.36-4-11.71-1.8-17.753-1.145-11.6,1.249-22.1,6.592-19.493,19.991.483,2.483,2.012,3.106,1.223,5.817-.543,1.866-3.8,4.331-4.725,6.358-1.353,2.958-1.231,6.758-2.77,9.536C37.478,7.2,22.89,20.633,17,15.4c-1.032-.916-3.429-.119-3.939,1.056Q5.038,15.5,6.194,9.464c0-1.316-3.85-.328-4.083.807q-4.091.383-5.464-3.736A7.618,7.618,0,0,1-1.5-.344C.819-1.832-2.727-2.362-4.026-1.529-17.189,6.92,4.273,19.1,6.193,9.751l-4.083.807C2.1,18.944,13.243,24.933,17.147,15.937l-3.939,1.056c4.12,3.66,14.576-.228,18.848-1.768,13.847-4.993,8.733-19.6,19.729-27.3.373-.262,1.147-.875.635-1.387-11.449-11.418,5.273-21.063,15.991-21.8,4.617-.317,8.67-1.223,12.154,2.766a14.3,14.3,0,0,1,2.971,6.291q2.592,8.425-8.264,8.7l-2.84,1.691c6.705-.165,9.775,5.525,10.892,11.139.9,4.543.059,22.887-11.349,14.924l-3.526,1.775c9.133,3.6-6.612,14.211-15.244,9.6-4.472-2.39-8.536-7.558-9.471-12.552C42.069.171,49.34-1.418,53.861-6.895c5.65-6.841-.143-13.045-8.119-11.914q-.284,1.116-.566,2.23c5.276-.843,22.665-6.682,13.313-14-5.664-4.43-18.624-2.886-23.138,2.588-1.263,1.533,2.694.873,3.163.627C51.258-34.051,36.54-46.838,27.286-47.7c-9.094-.85-25.454,3.247-24.569,14.824l3.3-1.645a21.808,21.808,0,0,0-23.444,9.744C-24.533-12.941-14.628-3.9-4.05.044-2.835.5.871-1.3-.795-1.916" transform="translate(19.832 47.812)" fill="#737b17"/>
          </g>
        </g>
        <g id="Group_91" data-name="Group 91" transform="translate(27.282 16.822)" clip-path="url(#clip-path)">
          <g id="Group_80" data-name="Group 80" transform="translate(54.691 64.711)">
            <path id="Path_118" data-name="Path 118" d="M0,0H8.83V.867A3.1,3.1,0,0,0,6.646,1.5a3.292,3.292,0,0,0-.56,2.222V9.915H17.1V3.72a3.027,3.027,0,0,0-.623-2.284,3.417,3.417,0,0,0-2.122-.57V0h8.831V.867A3.1,3.1,0,0,0,21,1.5a3.292,3.292,0,0,0-.561,2.222V19.379a3.061,3.061,0,0,0,.623,2.3,3.328,3.328,0,0,0,2.122.556V23.1H14.357v-.868a3.048,3.048,0,0,0,2.167-.618,3.256,3.256,0,0,0,.578-2.234V11.034H6.086v8.345A2.512,2.512,0,0,0,8.83,22.232V23.1H0v-.868a3.044,3.044,0,0,0,2.176-.618,3.3,3.3,0,0,0,.568-2.234V3.72a3.028,3.028,0,0,0-.622-2.284A3.419,3.419,0,0,0,0,.867Z" fill="#747a18"/>
          </g>
          <g id="Group_81" data-name="Group 81" transform="translate(91.27 63.808)">
            <path id="Path_119" data-name="Path 119" d="M-3.323,0h.849V6.9H-3.792A4.811,4.811,0,0,0-5.346,2.98,7.347,7.347,0,0,0-9.969,1.77h-1.373q-.2,1.968-.2,3.521a7.109,7.109,0,0,0,1.2,4.552,4.734,4.734,0,0,0,3.874,1.462H-4.7V12.57l-6.646.18V23.135h1.914q6.07,0,6.954-5.779h1.282L-2.673,24.8h-.9Q-3.594,24-4.262,24H-17.428v-.867a3.066,3.066,0,0,0,2.185-.61,3.324,3.324,0,0,0,.56-2.243V4.644a3.068,3.068,0,0,0-.623-2.3,3.417,3.417,0,0,0-2.122-.569V.9H-4.533Q-3.36.9-3.323,0" transform="translate(17.428)" fill="#747a18"/>
          </g>
          <g id="Group_82" data-name="Group 82" transform="translate(120.082 64.711)">
            <path id="Path_120" data-name="Path 120" d="M0,0H14.2q4.767,0,7.143,2.277t2.374,6.844a13.886,13.886,0,0,1-3.856,9.9Q16,23.1,9.463,23.1H0v-.868a3.039,3.039,0,0,0,2.185-.618,3.333,3.333,0,0,0,.56-2.234V3.72a3.06,3.06,0,0,0-.614-2.284A3.407,3.407,0,0,0,0,.867ZM6.086,2.2V20.229a11.2,11.2,0,0,0,5.634,1.678A7.643,7.643,0,0,0,17.951,19a11.563,11.563,0,0,0,2.366-7.543,13.185,13.185,0,0,0-2.067-7.65q-2.069-3-6.926-3A9.227,9.227,0,0,0,6.086,2.2" fill="#747a18"/>
          </g>
          <g id="Group_83" data-name="Group 83" transform="translate(157.238 64.711)">
            <path id="Path_121" data-name="Path 121" d="M0,0H11.486a6.191,6.191,0,0,1,3.838.993A3.547,3.547,0,0,1,16.6,3.974a6.8,6.8,0,0,1-1.435,4.144,13.873,13.873,0,0,1-4.307,3.567l4.027,6.231q2.708,4.189,5,4.316V23.1H15.55a2.826,2.826,0,0,1-2.312-1.553L6.086,10.421v8.957a2.538,2.538,0,0,0,2.782,2.853V23.1H0v-.868a3.039,3.039,0,0,0,2.185-.618,3.333,3.333,0,0,0,.56-2.234V3.72a3.06,3.06,0,0,0-.614-2.284A3.409,3.409,0,0,0,0,.867ZM6.086,1.768V9.286a6.585,6.585,0,0,0,3.63,1.532A2.776,2.776,0,0,0,12.1,9.746a5.346,5.346,0,0,0,.795-3.2A6.663,6.663,0,0,0,11.72,2.408,3.488,3.488,0,0,0,8.868.867a4.791,4.791,0,0,0-2.782.9" fill="#747a18"/>
          </g>
          <g id="Group_84" data-name="Group 84" transform="translate(187.51 63.754)">
            <path id="Path_122" data-name="Path 122" d="M-2.612,0h1.067L4.839,18.462a15.678,15.678,0,0,0,1.544,3.364,2.565,2.565,0,0,0,2.048,1.362v.868H1.938v-.868H2.37c.209,0,.314-.2.314-.6a1.278,1.278,0,0,0-.072-.4L.453,15.911H-7.466A17.748,17.748,0,0,0-8.694,21.13a1.987,1.987,0,0,0,.587,1.48,2.1,2.1,0,0,0,1.544.578h.957v.868h-8.09v-.868q2.022-.108,3.685-4.316Zm-.623,5.176-3.783,9.615H.069Z" transform="translate(13.695)" fill="#747a18"/>
          </g>
          <g id="Group_85" data-name="Group 85" transform="translate(55.052 98.724)">
            <path id="Path_123" data-name="Path 123" d="M-3.264-5.362A9.321,9.321,0,0,1-7.851-3.971a8.472,8.472,0,0,1-4.6-1.454A9.5,9.5,0,0,1-15.924-9.3a12.174,12.174,0,0,1-1.191-5.454,13.375,13.375,0,0,1,1.806-6.881,12.888,12.888,0,0,1,4.768-4.785,13.191,13.191,0,0,1,6.682-1.7A22.766,22.766,0,0,1,2.7-27v5.472H1.378a5.461,5.461,0,0,0-2.277-4,7.784,7.784,0,0,0-4.641-1.4,8.1,8.1,0,0,0-6.023,2.546,9.609,9.609,0,0,0-2.484,7.008,12.256,12.256,0,0,0,2.528,7.919A7.609,7.609,0,0,0-5.395-6.3,5.934,5.934,0,0,0-1.44-7.637,4.07,4.07,0,0,0,.15-10.851q0-2.71-3.414-2.71h-.65v-.867H5.1v.867a1.577,1.577,0,0,0-1.337.735A2.993,2.993,0,0,0,3.274-11.1v7.439h-.9Q2.28-6.842-.031-6.842a4.688,4.688,0,0,0-2.51,1.011q-.415.271-.723.469" transform="translate(17.115 28.117)" fill="#747a18"/>
          </g>
          <g id="Group_86" data-name="Group 86" transform="translate(82.536 98.291)">
            <path id="Path_124" data-name="Path 124" d="M-2.612,0h1.067L4.839,18.462a15.639,15.639,0,0,0,1.544,3.364,2.564,2.564,0,0,0,2.049,1.362v.868H1.939v-.868h.43c.21,0,.316-.2.316-.6a1.281,1.281,0,0,0-.073-.4L.453,15.911H-7.466A17.754,17.754,0,0,0-8.694,21.13a1.987,1.987,0,0,0,.587,1.48,2.1,2.1,0,0,0,1.544.578h.957v.868h-8.09v-.868q2.022-.108,3.685-4.316Zm-.623,5.176-3.783,9.615H.069Z" transform="translate(13.695)" fill="#747a18"/>
          </g>
          <g id="Group_87" data-name="Group 87" transform="translate(110.351 99.247)">
            <path id="Path_125" data-name="Path 125" d="M0,0H11.486a6.191,6.191,0,0,1,3.838.993A3.547,3.547,0,0,1,16.6,3.974a6.8,6.8,0,0,1-1.435,4.144,13.883,13.883,0,0,1-4.307,3.567l4.027,6.231q2.708,4.189,5,4.316V23.1H15.55a2.826,2.826,0,0,1-2.312-1.553L6.086,10.421v8.957a2.538,2.538,0,0,0,2.782,2.853V23.1H0v-.868a3.039,3.039,0,0,0,2.185-.618,3.333,3.333,0,0,0,.56-2.234V3.72a3.06,3.06,0,0,0-.614-2.284A3.407,3.407,0,0,0,0,.867ZM6.086,1.768V9.286a6.585,6.585,0,0,0,3.63,1.532A2.776,2.776,0,0,0,12.1,9.746a5.346,5.346,0,0,0,.795-3.2A6.663,6.663,0,0,0,11.72,2.408,3.488,3.488,0,0,0,8.868.867a4.791,4.791,0,0,0-2.782.9" fill="#747a18"/>
          </g>
          <g id="Group_88" data-name="Group 88" transform="translate(135.148 99.247)">
            <path id="Path_126" data-name="Path 126" d="M0,0H14.2q4.767,0,7.143,2.277t2.374,6.844a13.886,13.886,0,0,1-3.856,9.9Q16,23.1,9.463,23.1H0v-.868a3.039,3.039,0,0,0,2.185-.618,3.333,3.333,0,0,0,.56-2.234V3.72a3.06,3.06,0,0,0-.614-2.284A3.409,3.409,0,0,0,0,.867ZM6.086,2.2V20.229a11.2,11.2,0,0,0,5.634,1.678A7.643,7.643,0,0,0,17.951,19a11.563,11.563,0,0,0,2.366-7.543A13.189,13.189,0,0,0,18.25,3.808Q16.181.813,11.324.813A9.227,9.227,0,0,0,6.086,2.2" fill="#747a18"/>
          </g>
          <g id="Group_89" data-name="Group 89" transform="translate(165.976 98.345)">
            <path id="Path_127" data-name="Path 127" d="M-3.323,0h.848V6.9H-3.793A4.806,4.806,0,0,0-5.347,2.98,7.343,7.343,0,0,0-9.969,1.77h-1.373q-.2,1.969-.2,3.521a7.1,7.1,0,0,0,1.2,4.552,4.734,4.734,0,0,0,3.874,1.462H-4.7V12.57l-6.646.18V23.135h1.914q6.069,0,6.953-5.779h1.283L-2.674,24.8h-.9Q-3.594,24-4.263,24H-17.428v-.867a3.062,3.062,0,0,0,2.184-.61,3.319,3.319,0,0,0,.561-2.243V4.644a3.068,3.068,0,0,0-.623-2.3,3.417,3.417,0,0,0-2.122-.569V.9H-4.533Q-3.36.9-3.323,0" transform="translate(17.428)" fill="#747a18"/>
          </g>
          <g id="Group_90" data-name="Group 90" transform="translate(187.756 99.247)">
            <path id="Path_128" data-name="Path 128" d="M-.14,0H5.785L18.931,17.657V12.288a33.959,33.959,0,0,0-.79-8.2Q17.352,1.049,15.626.867V0h7.891V.867q-3.3.308-3.306,10.854V23.929h-.835L3.779,2.871V9.59a40.839,40.839,0,0,0,.785,9.4q.787,3.025,2.556,3.241V23.1H-.736v-.868Q2.57,21.727,2.569,9.789V3.558a2.753,2.753,0,0,0-.623-2.132A3.4,3.4,0,0,0-.14.867Z" transform="translate(0.736)" fill="#747a18"/>
          </g>
        </g>
      </g>
      <g id="Group_74-2" data-name="Group 74" transform="translate(188.86 112.331)">
        <path id="Path_111-2" data-name="Path 111" d="M-2.591-1.306c-3.9,4.827-6.054,12.8-13.414,20.285a45.2,45.2,0,0,1-4.748,3.907A48.511,48.511,0,0,1-22.3,17.05c-2.168-11.972-4.532-49.634-4.532-49.634S-31.48,6.311-30.728,19.582c.309,5.419,2.2,11.154,3.989,17.787-2.378-.44-4.62-.807-5.916-.892a55.9,55.9,0,0,0-6.719.313c-1.06-2.411-2.917-6.591-3.752-8.154-1.12-2.094-3.776-5.662-4.688-7.715-1.346-3.041-4.738-13.113-4.738-13.113s2.156,11.206,3.334,14.764c1.01,3.04,3.443,5.664,4.769,11.1a33.254,33.254,0,0,1,.528,3.347,12.5,12.5,0,0,1-2.345-.19c-4.625-.939-18.379-6.382-18.379-6.382s12.931,9.562,17.759,11.524c4.126,1.681,9.989-.26,16.677,3.772a44.931,44.931,0,0,1,6.334,5.75A68.882,68.882,0,0,1-23.5,63.031c-.374,7.315-5.563,26.15-5.563,26.15s7.195,2.732,13.681,2.387c3.038-.159,11.938-2.36,11.938-2.36s-5.112-30.137-7.656-39.4c-1.147-4.187-3.483-10.13-5.745-16.064,2.9-4.465,7.9-12.253,9.656-15.507C-4.831,13.875-1.4,4.633,1.06.8,4.7-4.856,17.592-20.989,17.592-20.989S1.976-6.96-2.591-1.306" transform="translate(64.646 32.584)" fill="#fff"/>
      </g>
      <g id="Group_85-2" data-name="Group 85" transform="translate(251.334 207.964)">
        <path id="Path_123-2" data-name="Path 123" d="M-3.264-5.362A9.321,9.321,0,0,1-7.851-3.971a8.472,8.472,0,0,1-4.6-1.454A9.5,9.5,0,0,1-15.924-9.3a12.174,12.174,0,0,1-1.191-5.454,13.375,13.375,0,0,1,1.806-6.881,12.888,12.888,0,0,1,4.768-4.785,13.191,13.191,0,0,1,6.682-1.7A22.766,22.766,0,0,1,2.7-27v5.472H1.378a5.461,5.461,0,0,0-2.277-4,7.784,7.784,0,0,0-4.641-1.4,8.1,8.1,0,0,0-6.023,2.546,9.609,9.609,0,0,0-2.484,7.008,12.256,12.256,0,0,0,2.528,7.919A7.609,7.609,0,0,0-5.395-6.3,5.934,5.934,0,0,0-1.44-7.637,4.07,4.07,0,0,0,.15-10.851q0-2.71-3.414-2.71h-.65v-.867H5.1v.867a1.577,1.577,0,0,0-1.337.735A2.993,2.993,0,0,0,3.274-11.1v7.439h-.9Q2.28-6.842-.031-6.842a4.688,4.688,0,0,0-2.51,1.011q-.415.271-.723.469" transform="translate(17.115 28.117)" fill="#fff"/>
      </g>
      <g id="Group_86-2" data-name="Group 86" transform="translate(278.817 207.531)">
        <path id="Path_124-2" data-name="Path 124" d="M-2.612,0h1.067L4.839,18.462a15.639,15.639,0,0,0,1.544,3.364,2.564,2.564,0,0,0,2.049,1.362v.868H1.939v-.868h.43c.21,0,.316-.2.316-.6a1.281,1.281,0,0,0-.073-.4L.453,15.911H-7.466A17.754,17.754,0,0,0-8.694,21.13a1.987,1.987,0,0,0,.587,1.48,2.1,2.1,0,0,0,1.544.578h.957v.868h-8.09v-.868q2.022-.108,3.685-4.316Zm-.623,5.176-3.783,9.615H.069Z" transform="translate(13.695)" fill="#fff"/>
      </g>
      <g id="Group_87-2" data-name="Group 87" transform="translate(306.633 208.487)">
        <path id="Path_125-2" data-name="Path 125" d="M0,0H11.486a6.191,6.191,0,0,1,3.838.993A3.547,3.547,0,0,1,16.6,3.974a6.8,6.8,0,0,1-1.435,4.144,13.883,13.883,0,0,1-4.307,3.567l4.027,6.231q2.708,4.189,5,4.316V23.1H15.55a2.826,2.826,0,0,1-2.312-1.553L6.086,10.421v8.957a2.538,2.538,0,0,0,2.782,2.853V23.1H0v-.868a3.039,3.039,0,0,0,2.185-.618,3.333,3.333,0,0,0,.56-2.234V3.72a3.06,3.06,0,0,0-.614-2.284A3.407,3.407,0,0,0,0,.867ZM6.086,1.768V9.286a6.585,6.585,0,0,0,3.63,1.532A2.776,2.776,0,0,0,12.1,9.746a5.346,5.346,0,0,0,.795-3.2A6.663,6.663,0,0,0,11.72,2.408,3.488,3.488,0,0,0,8.868.867a4.791,4.791,0,0,0-2.782.9" fill="#fff"/>
      </g>
      <g id="Group_88-2" data-name="Group 88" transform="translate(331.429 208.487)">
        <path id="Path_126-2" data-name="Path 126" d="M0,0H14.2q4.767,0,7.143,2.277t2.374,6.844a13.886,13.886,0,0,1-3.856,9.9Q16,23.1,9.463,23.1H0v-.868a3.039,3.039,0,0,0,2.185-.618,3.333,3.333,0,0,0,.56-2.234V3.72a3.06,3.06,0,0,0-.614-2.284A3.409,3.409,0,0,0,0,.867ZM6.086,2.2V20.229a11.2,11.2,0,0,0,5.634,1.678A7.643,7.643,0,0,0,17.951,19a11.563,11.563,0,0,0,2.366-7.543A13.189,13.189,0,0,0,18.25,3.808Q16.181.813,11.324.813A9.227,9.227,0,0,0,6.086,2.2" fill="#fff"/>
      </g>
      <g id="Group_89-2" data-name="Group 89" transform="translate(362.257 207.585)">
        <path id="Path_127-2" data-name="Path 127" d="M-3.323,0h.848V6.9H-3.793A4.806,4.806,0,0,0-5.347,2.98,7.343,7.343,0,0,0-9.969,1.77h-1.373q-.2,1.969-.2,3.521a7.1,7.1,0,0,0,1.2,4.552,4.734,4.734,0,0,0,3.874,1.462H-4.7V12.57l-6.646.18V23.135h1.914q6.069,0,6.953-5.779h1.283L-2.674,24.8h-.9Q-3.594,24-4.263,24H-17.428v-.867a3.062,3.062,0,0,0,2.184-.61,3.319,3.319,0,0,0,.561-2.243V4.644a3.068,3.068,0,0,0-.623-2.3,3.417,3.417,0,0,0-2.122-.569V.9H-4.533Q-3.36.9-3.323,0" transform="translate(17.428)" fill="#fff"/>
      </g>
      <g id="Group_90-2" data-name="Group 90" transform="translate(384.037 208.487)">
        <path id="Path_128-2" data-name="Path 128" d="M-.14,0H5.785L18.931,17.657V12.288a33.959,33.959,0,0,0-.79-8.2Q17.352,1.049,15.626.867V0h7.891V.867q-3.3.308-3.306,10.854V23.929h-.835L3.779,2.871V9.59a40.839,40.839,0,0,0,.785,9.4q.787,3.025,2.556,3.241V23.1H-.736v-.868Q2.57,21.727,2.569,9.789V3.558a2.753,2.753,0,0,0-.623-2.132A3.4,3.4,0,0,0-.14.867Z" transform="translate(0.736)" fill="#fff"/>
      </g>
    </g>
  </g>
</svg>
