<svg xmlns="http://www.w3.org/2000/svg" xmlns:xlink="http://www.w3.org/1999/xlink" width="1920" height="237.903" viewBox="0 0 1920 237.903">
  <defs>
    <clipPath id="clip-path">
      <path id="Path_129" data-name="Path 129" d="M0,43.534H329.767V-168.2H0Z" transform="translate(0 168.204)" fill="none"/>
    </clipPath>
  </defs>
  <g id="Group_140" data-name="Group 140" transform="translate(0 -92.418)">
    <g id="Rectangle_7" data-name="Rectangle 7" transform="translate(0 258)" fill="#727c16" stroke="#707070" stroke-width="1">
      <rect width="1920" height="65" stroke="none"/>
      <rect x="0.5" y="0.5" width="1919" height="64" fill="none"/>
    </g>
    <g id="Group_117" data-name="Group 117" transform="translate(-2326.338 401.192)">
      <g id="Group_92" data-name="Group 92" transform="translate(2974.255 -128.414)">
        <path id="Path_130" data-name="Path 130" d="M0,0V2.28H12.753V35.213h5.922V2.28H31.428V0Z" fill="#fff"/>
      </g>
      <path id="Path_131" data-name="Path 131" d="M0,0H5.926V22.864a11.562,11.562,0,0,0,.77,4.223,10.3,10.3,0,0,0,5.657,5.83,11.41,11.41,0,0,0,4.526.866,11.471,11.471,0,0,0,4.547-.866,10.124,10.124,0,0,0,5.615-5.83,11.733,11.733,0,0,0,.757-4.223V0h2.616V22.864a14.779,14.779,0,0,1-.875,5.094,10.822,10.822,0,0,1-2.751,4.2,13.4,13.4,0,0,1-4.8,2.852,20.635,20.635,0,0,1-6.99,1.056,18.351,18.351,0,0,1-6.46-1.056,13.549,13.549,0,0,1-4.7-2.869A11.885,11.885,0,0,1,.967,27.9,13.812,13.812,0,0,1,0,22.729Z" transform="translate(3027.734 -128.414)" fill="#fff"/>
      <path id="Path_132" data-name="Path 132" d="M5.29,14.1A18.609,18.609,0,0,0,6.4,20.745a14.439,14.439,0,0,0,3.058,4.967,13.264,13.264,0,0,0,4.606,3.121,15.25,15.25,0,0,0,5.771,1.077,9.2,9.2,0,0,0,3.579-.715,13.385,13.385,0,0,0,3.2-1.88A16.36,16.36,0,0,0,29.256,24.7a16.7,16.7,0,0,0,1.922-2.932l2.473,1.6a24.151,24.151,0,0,1-2.57,3.411,16.553,16.553,0,0,1-3.424,2.894,18.242,18.242,0,0,1-4.4,2.01,18.445,18.445,0,0,1-5.472.757,20.858,20.858,0,0,1-7.962-1.464A18.826,18.826,0,0,1,3.687,27,17.694,17.694,0,0,1-.258,21.17,18.491,18.491,0,0,1-1,9.279,17.982,17.982,0,0,1,.853,4.892,18.51,18.51,0,0,1,3.784,1.128,18.213,18.213,0,0,1,7.7-1.812a20.426,20.426,0,0,1,4.8-1.9,21.587,21.587,0,0,1,5.56-.69,17.111,17.111,0,0,1,9.506,2.751,18.03,18.03,0,0,1,3.47,2.9,22.848,22.848,0,0,1,2.612,3.411l-2.557,1.72A17.5,17.5,0,0,0,26.152.106,10.416,10.416,0,0,0,19.86-1.875a14.617,14.617,0,0,0-5.7,1.115A13.505,13.505,0,0,0,9.53,2.406a15.019,15.019,0,0,0-3.1,5.03A18.41,18.41,0,0,0,5.29,14.1" transform="translate(3116.145 -124.793)" fill="#fff"/>
      <g id="Group_96" data-name="Group 96" transform="translate(3174.347 -128.414)">
        <path id="Path_134" data-name="Path 134" d="M0,0V35.213H24.483V32.942H5.926V17.165H18.338V14.894H5.926V2.28H24.483V0Z" fill="#fff"/>
      </g>
      <g id="Group_97" data-name="Group 97" transform="translate(3222.632 -128.414)">
        <path id="Path_135" data-name="Path 135" d="M20.291,0V25.749h-.223L-3.015,0H-6.329V35.213h2.667V7.419h.2L21.523,36.063H22.9V0Z" transform="translate(6.329)" fill="#fff"/>
      </g>
      <path id="Path_136" data-name="Path 136" d="M0,0V2.28H12.753V35.213h5.922V2.28H31.428V0Z" transform="translate(3274.533 -128.414)" fill="#fff"/>
      <path id="Path_137" data-name="Path 137" d="M0,0H12.185a20.686,20.686,0,0,1,5.577.686,11.984,11.984,0,0,1,4,1.922,7.76,7.76,0,0,1,2.4,2.9,8.436,8.436,0,0,1,.8,3.68,7.683,7.683,0,0,1-.622,3.087,8.206,8.206,0,0,1-1.754,2.578,11,11,0,0,1-2.721,1.989,14.372,14.372,0,0,1-3.525,1.3L29.148,35.213H22.292L10.078,18.675H5.922V35.213H0ZM5.922,16.908H9.35a11.948,11.948,0,0,0,3.676-.534,9.166,9.166,0,0,0,2.919-1.5,6.748,6.748,0,0,0,1.926-2.36,6.967,6.967,0,0,0,.69-3.129,7.477,7.477,0,0,0-.547-2.89,6.42,6.42,0,0,0-1.548-2.259,7.236,7.236,0,0,0-2.36-1.485,8.339,8.339,0,0,0-2.986-.526h-5.2Z" transform="translate(3328.631 -128.414)" fill="#fff"/>
      <path id="Path_138" data-name="Path 138" d="M14.815,28.082A19.965,19.965,0,0,1,9.591,27.4a20.108,20.108,0,0,1-4.66-1.884A18.884,18.884,0,0,1,1,22.6a18.6,18.6,0,0,1-3.016-3.773,17.748,17.748,0,0,1-1.926-4.45,18.058,18.058,0,0,1-.677-4.938,17.069,17.069,0,0,1,1.5-7.1A18.39,18.39,0,0,1,1-3.459,19.426,19.426,0,0,1,7.16-7.35a20.62,20.62,0,0,1,7.655-1.409,20.854,20.854,0,0,1,5.22.644A20.117,20.117,0,0,1,24.687-6.3,19.853,19.853,0,0,1,28.6-3.459,18.213,18.213,0,0,1,31.622.217a17.664,17.664,0,0,1,1.922,4.357,17.363,17.363,0,0,1,.673,4.862,18.108,18.108,0,0,1-2.6,9.388A18.771,18.771,0,0,1,28.6,22.6a19.117,19.117,0,0,1-3.916,2.923,20.15,20.15,0,0,1-9.872,2.561m0-1.775a10.853,10.853,0,0,0,5.321-1.266,11.213,11.213,0,0,0,3.9-3.52,16.477,16.477,0,0,0,2.4-5.346,26.413,26.413,0,0,0,.816-6.738,25.588,25.588,0,0,0-.816-6.654,15.71,15.71,0,0,0-2.4-5.2,11.05,11.05,0,0,0-3.9-3.394,11.214,11.214,0,0,0-5.321-1.211A11.5,11.5,0,0,0,9.394-5.811a10.907,10.907,0,0,0-3.9,3.394,15.757,15.757,0,0,0-2.372,5.2,26.162,26.162,0,0,0-.8,6.654,27.007,27.007,0,0,0,.8,6.738A16.53,16.53,0,0,0,5.49,21.52a10.842,10.842,0,0,0,9.325,4.786" transform="translate(3382.538 -120.432)" fill="#fff"/>
      <path id="Path_139" data-name="Path 139" d="M0,0H11.71a36.883,36.883,0,0,1,9.333,1.03A16.41,16.41,0,0,1,32.05,10.078a17.132,17.132,0,0,1,1.5,7.222,18.126,18.126,0,0,1-1.346,6.982,16.266,16.266,0,0,1-3.945,5.7,18.98,18.98,0,0,1-6.4,3.836,25.242,25.242,0,0,1-8.715,1.392H0ZM5.922,32.635h6.263a15.845,15.845,0,0,0,5.632-.988,12.793,12.793,0,0,0,4.576-2.911,13.759,13.759,0,0,0,3.075-4.778,17.686,17.686,0,0,0,1.123-6.54,16.226,16.226,0,0,0-1.068-5.956,14.077,14.077,0,0,0-2.974-4.694A13.652,13.652,0,0,0,18.014,3.71,14.979,14.979,0,0,0,12.24,2.616H5.922Z" transform="translate(3473.733 -128.414)" fill="#fff"/>
      <path id="Path_141" data-name="Path 141" d="M0,0V35.213H24.479V32.942H5.922V17.165H18.334V14.894H5.922V2.28H24.479V0Z" transform="translate(3531.84 -128.414)" fill="#fff"/>
      <path id="Path_142" data-name="Path 142" d="M15.2,19.159a20.656,20.656,0,0,1-.353,3.8,8.14,8.14,0,0,1-1.417,3.348,7.467,7.467,0,0,1-3.049,2.389,12.548,12.548,0,0,1-5.207.917,14.961,14.961,0,0,1-3.281-.336,14.518,14.518,0,0,1-2.671-.887,13.567,13.567,0,0,1-2.175-1.228c-.648-.471-1.241-.925-1.783-1.4l1.851-2.494c.391.307.866.7,1.422,1.173A20.6,20.6,0,0,0,.311,25.8a12.252,12.252,0,0,0,2.01,1.123,5.246,5.246,0,0,0,2.12.467,4.907,4.907,0,0,0,3.579-1.228A4.394,4.394,0,0,0,9.27,22.869V-5.976H15.2Z" transform="translate(3613.236 -122.439)" fill="#fff"/>
      <path id="Path_144" data-name="Path 144" d="M12.927,0-4.032,35.987h2.978L4.5,24.252H19.581l5.4,11.735h6.006L14.42,0Zm-.816,8.05,6.376,13.93H5.545Z" transform="translate(3654.237 -129.19)" fill="#fff"/>
      <path id="Path_145" data-name="Path 145" d="M0,0H12.189a20.676,20.676,0,0,1,5.573.686,11.984,11.984,0,0,1,4,1.922,7.812,7.812,0,0,1,2.406,2.9,8.434,8.434,0,0,1,.8,3.68,7.752,7.752,0,0,1-.618,3.087,8.29,8.29,0,0,1-1.758,2.578,10.927,10.927,0,0,1-2.721,1.989,14.308,14.308,0,0,1-3.525,1.3L29.148,35.213H22.292L10.078,18.675H5.922V35.213H0ZM5.922,16.908H9.35a11.994,11.994,0,0,0,3.68-.534,9.144,9.144,0,0,0,2.915-1.5,6.748,6.748,0,0,0,1.926-2.36,6.967,6.967,0,0,0,.69-3.129,7.477,7.477,0,0,0-.547-2.89,6.42,6.42,0,0,0-1.548-2.259,7.261,7.261,0,0,0-2.355-1.485,8.363,8.363,0,0,0-2.99-.526h-5.2Z" transform="translate(3706.996 -128.414)" fill="#fff"/>
      <path id="Path_146" data-name="Path 146" d="M0,0H11.71a36.883,36.883,0,0,1,9.333,1.03A16.41,16.41,0,0,1,32.05,10.078a17.132,17.132,0,0,1,1.5,7.222,18.126,18.126,0,0,1-1.346,6.982,16.266,16.266,0,0,1-3.945,5.7,18.98,18.98,0,0,1-6.4,3.836,25.242,25.242,0,0,1-8.715,1.392H0ZM5.922,32.635h6.267a15.838,15.838,0,0,0,5.628-.988,12.793,12.793,0,0,0,4.576-2.911,13.759,13.759,0,0,0,3.075-4.778,17.686,17.686,0,0,0,1.123-6.54,16.226,16.226,0,0,0-1.068-5.956,14.077,14.077,0,0,0-2.974-4.694A13.652,13.652,0,0,0,18.014,3.71,14.979,14.979,0,0,0,12.24,2.616H5.922Z" transform="translate(3757.807 -128.414)" fill="#fff"/>
      <path id="Path_148" data-name="Path 148" d="M200.191,26.639h5.922V-8.574h-5.922Z" transform="translate(3615.727 -119.839)" fill="#fff"/>
      <path id="Path_149" data-name="Path 149" d="M20.291,0V25.749h-.219L-3.015,0H-6.329V35.213h2.667V7.419h.2L21.528,36.063H22.9V0Z" transform="translate(3854.265 -128.414)" fill="#fff"/>
      <path id="Path_150" data-name="Path 150" d="M0,0V35.213H24.483V32.942H5.922V17.165H18.338V14.894H5.922V2.28H24.483V0Z" transform="translate(3903.242 -128.414)" fill="#fff"/>
      <path id="Path_151" data-name="Path 151" d="M0,0H12.185a20.686,20.686,0,0,1,5.577.686,11.984,11.984,0,0,1,4,1.922,7.76,7.76,0,0,1,2.4,2.9,8.436,8.436,0,0,1,.8,3.68,7.683,7.683,0,0,1-.622,3.087,8.206,8.206,0,0,1-1.754,2.578,11,11,0,0,1-2.721,1.989,14.372,14.372,0,0,1-3.525,1.3L29.148,35.213H22.292L10.078,18.675H5.922V35.213H0ZM5.922,16.908H9.35a11.994,11.994,0,0,0,3.68-.534,9.188,9.188,0,0,0,2.915-1.5,6.748,6.748,0,0,0,1.926-2.36,6.967,6.967,0,0,0,.69-3.129,7.477,7.477,0,0,0-.547-2.89,6.42,6.42,0,0,0-1.548-2.259,7.236,7.236,0,0,0-2.36-1.485,8.339,8.339,0,0,0-2.986-.526h-5.2Z" transform="translate(3951.525 -128.414)" fill="#fff"/>
      <path id="Path_153" data-name="Path 153" d="M244.513,26.639h5.922V-8.574h-5.922Z" transform="translate(3757.826 -119.839)" fill="#fff"/>
      <path id="Path_154" data-name="Path 154" d="M12.924,0-4.031,35.987h2.965L4.5,24.252H19.582l5.4,11.735h6.006L14.408,0Zm-.816,8.05,6.372,13.93H5.542Z" transform="translate(4034.099 -129.19)" fill="#fff"/>
    </g>
    <g id="Group_123" data-name="Group 123" transform="translate(2)">
      <g id="Group_122" data-name="Group 122" transform="translate(-4103.29 -1128)">
        <g id="Group_115" data-name="Group 115" transform="translate(4272.29 1220.418)">
          <g id="Group_74" data-name="Group 74" transform="translate(30.892 30.973)">
            <path id="Path_111" data-name="Path 111" d="M31.876,16.067c-6.068,7.509-9.417,19.91-20.864,31.552A70.312,70.312,0,0,1,3.627,53.7a75.455,75.455,0,0,1-2.41-9.076C-2.156,26-5.832-32.584-5.832-32.584s-7.227,60.5-6.057,81.14c.481,8.428,3.427,17.35,6.205,27.667-3.7-.684-7.186-1.256-9.2-1.387a86.944,86.944,0,0,0-10.452.487c-1.648-3.751-4.537-10.252-5.836-12.682-1.742-3.256-5.874-8.806-7.292-12-2.093-4.73-7.37-20.4-7.37-20.4s3.353,17.43,5.186,22.964c1.571,4.729,5.356,8.811,7.418,17.269a51.724,51.724,0,0,1,.821,5.206,19.438,19.438,0,0,1-3.648-.3c-7.194-1.46-28.587-9.926-28.587-9.926s20.113,14.873,27.624,17.925c6.417,2.614,15.537-.4,25.939,5.868,2.465,1.484,6.891,5.874,9.851,8.944a107.141,107.141,0,0,1,.593,17.941c-.582,11.377-8.652,40.675-8.652,40.675s11.191,4.249,21.279,3.713c4.726-.248,18.568-3.672,18.568-3.672s-7.951-46.876-11.909-61.278C16.863,89.064,13.231,79.82,9.711,70.59,14.219,63.646,22,51.531,24.73,46.469,28.393,39.68,33.725,25.3,37.556,19.343c5.659-8.8,25.714-33.892,25.714-33.892S38.98,7.273,31.876,16.067" transform="translate(64.646 32.584)" fill="#737b17"/>
          </g>
          <g id="Group_75" data-name="Group 75" transform="translate(2.156 70.378)">
            <path id="Path_112" data-name="Path 112" d="M21.285,25.96c.532,19.679-39.364,17.02-50,12.763-20.749-8.511-17.557-53.2-.532-41.491-10.11,1.6-13.833-15.427-11.174-22.344,3.722-9.042,25-20.742,31.919-10.105-6.381-15.43,32.979-28.193,39.364-3.725,2.661,8.514-.532,18.619-8.511,22.344,5.318,0,8.511,4.788,8.511,9.577C30.328-.11,23.944-.11,21.285,3.619,18.093,10,23.944,19.042,23.412,26.49c-1.063,1.063-1.063-.53-2.128-.53" transform="translate(43.166 52.647)" fill="#737b17"/>
          </g>
          <g id="Group_76" data-name="Group 76" transform="translate(0 68.894)">
            <path id="Path_113" data-name="Path 113" d="M20.943,26.563c-1.153,17.1-33.418,15.916-45.03,10.323-7.3-3.515-10.932-11.071-12.379-18.71C-37.134,14.659-38.621-6.431-28.9-.868l3.688-3.624c-7.383-.131-10.292-9.675-9.816-15.694.761-9.638,17.212-23.61,26.437-13.474,1.341,1.472,6.831.321,6.113-2.15-3.3-11.353,13.042-16.542,21.508-13.969C32.81-45.59,36.222-25.662,23.18-17.462c-1.289.811-1.748,2.567.113,3Q34.288-12.438,26.482-.61a15.092,15.092,0,0,0-2.968,1.944c-.546,1.1-1.966,1.728-2.571,2.888C17.4,11.017,22.73,20.594,23.086,27.6l3.557-2.811c0-.07,0-.14-.007-.212-1.968-1.226-7.752,1.569-5,3.285a5.417,5.417,0,0,0,4.248.848c1.472-.185,3.648-1.018,3.557-2.811-.255-5.032-3.282-10.914-2.876-15.761.8-9.6,5.436-7.215,8.79-12.827a10.061,10.061,0,0,0,1.535-4.924c.158-4.754-4.509-5.877-5.18-9.2-.354-1.754,2.428-3.669,4.219-7.545a22.633,22.633,0,0,0-1.644-21.182C24.635-60.176-14.9-55.006-8.831-34.107l6.111-2.15c-9.442-10.375-27.933-2.253-35.213,7.27-7.31,9.563-3.346,28.215,10.346,28.46,1.232.022,6.544-1.989,3.688-3.624-23.565-13.487-22.374,31.24-9.381,41.777C-19.781,48.573,25.769,49,27.326,25.876c.191-2.841-6.222-1.705-6.383.687" transform="translate(42.473 53.871)" fill="#737b17"/>
          </g>
          <g id="Group_77" data-name="Group 77" transform="translate(26.645 1.862)">
            <path id="Path_114" data-name="Path 114" d="M7.927,23.464C-4.839,19.209-19.2,9.633-15.477-6.322-12.285-20.157,4.735-31.86,19.1-27.073c-3.191-17.02,27.662-22.871,38.3-19.679,10.107,2.659,29.789,21.279,12.236,28.192,4.255-7.449,32.978-9.044,34.044,3.191C104.212-8.454,88.252-3.133,82.4-2.6c4.254-1.595,11.168.527,13.3,5.85C100.054,14.117,82.075,19.4,77.9,27.409c-6.129,11.758,3.815,27.113,14.02,32.657,9.783,5.308,23.975,5.732,30.908-4.732,2.216-3.353,3.952-12.645-2.135-13.245,9.127,8.9,23.464-2.623,24.431-12.478,1.191-12.194-3.094-33.17-19.527-31.077-.36,2.5,1.3,2.643,3.564,3.6,7.93,3.365,15.109-3.663,15.982-10.986,1.577-13.185-7.976-26.985-22.286-23.594-11.231,2.668-24.957-.14-33.927,10.284-6.423,7.47-6.891,21.067,1.348,27.37C77.032,13.141,78.6,23.4,74.035,35.807,71.21,43.467,63.724,46.717,56.3,48.4c-3.755.848-19.533,5.578-21.106,1.716-.794,5.218-5.913,5.69-10.3,3.664-5.71-2.637-7.347-7.358-6.74-13.287.942,5.62-12.239,2.319-14.263-2.319C2.346,34.647,2.913,24.588,7.4,23.464" transform="translate(16.076 47.585)" fill="#737b17"/>
          </g>
          <g id="Group_78" data-name="Group 78" transform="translate(23.568 0)">
            <path id="Path_115" data-name="Path 115" d="M9.779,23.575C1.636,20.541-8.463,15.87-11.98,7.129-18.542-9.182-1.621-27.863,16.468-23.73c1.518.348,5.287-.466,5.126-2.558-1.084-14.2,19.642-19.958,31.1-17.59,8.37,1.73,30.071,17.754,14.3,26.035l4.92.975c4.291-5.206,14.605-4.969,20.358-3.021,13.429,4.552-.812,15.7-10.105,17.19-2.991.479-5.311,4.1-.881,3.468Q98.3,10.04,86.776,17.534L84,19.707c-2.508,2.1-5.668,3.857-7.692,6.505A18.667,18.667,0,0,0,72.166,38.12c.07,13.151,12.018,25.018,24.172,28.039,8.606,2.14,19.218.89,25.79-5.592,4.9-4.83,8.684-15.106.418-18.366-1.3-.514-7.458,1.383-5.483,2.761,29.869,20.851,46.189-47.485,9.1-46.571-1.029.025-5.038.785-4.418,2.631,4.67,13.914,24.143.6,25.9-8.642,1.456-7.673-2.25-17.044-8.446-21.669-8.337-6.225-18.214-2.792-27.613-1.781C93.535-29.129,77.2-20.819,81.259.023c.751,3.863,3.13,4.832,1.9,9.048-.845,2.9-5.91,6.737-7.349,9.889-2.1,4.6-1.914,10.511-4.309,14.832C69.31,37.748,46.62,58.649,37.464,50.514c-1.605-1.424-5.333-.185-6.126,1.642Q18.852,50.671,20.65,41.277c0-2.047-5.989-.511-6.352,1.256q-6.363.6-8.5-5.811a11.849,11.849,0,0,1,2.885-10.7c3.6-2.314-1.911-3.138-3.931-1.842-20.475,13.141,12.909,32.088,15.9,17.545L14.3,42.98c-.018,13.042,17.317,22.358,23.389,8.366L31.56,52.988c6.408,5.693,22.673-.354,29.317-2.75C82.415,42.47,74.461,19.75,91.565,7.767c.581-.408,1.784-1.362.987-2.158-17.808-17.76,8.2-32.761,24.873-33.9,7.182-.493,13.486-1.9,18.9,4.3a22.24,22.24,0,0,1,4.621,9.786Q144.981-1.1,128.1-.681q-2.208,1.315-4.418,2.631c10.429-.257,15.2,8.594,16.942,17.326,1.4,7.067.091,35.6-17.653,23.213l-5.484,2.761c14.205,5.6-10.284,22.1-23.71,14.928C86.816,56.459,80.5,48.42,79.042,40.653c-2.591-13.83,8.718-16.3,15.751-24.821C103.581,5.191,94.57-4.459,82.164-2.7Q81.723-.963,81.283.77C89.489-.541,116.536-9.623,101.991-21,93.182-27.893,73.022-25.492,66-16.977c-1.965,2.384,4.191,1.357,4.92.975C90.743-26.407,67.851-46.3,53.456-47.643c-14.146-1.323-39.592,5.051-38.216,23.058l5.127-2.559C6.5-30.313-8.608-24.477-16.1-11.989-27.144,6.427-11.738,20.494,4.716,26.624c1.89.7,7.654-2.083,5.063-3.049" transform="translate(19.832 47.812)" fill="#737b17"/>
          </g>
        </g>
        <g id="Group_91" data-name="Group 91" transform="translate(4314.725 1246.584)" clip-path="url(#clip-path)">
          <g id="Group_80" data-name="Group 80" transform="translate(85.069 100.654)">
            <path id="Path_118" data-name="Path 118" d="M0,0H13.735V1.348q-2.526.057-3.4.983a5.121,5.121,0,0,0-.871,3.455v9.635H26.6V5.787q0-2.723-.969-3.552a5.315,5.315,0,0,0-3.3-.886V0H36.068V1.348q-2.528.057-3.4.983A5.12,5.12,0,0,0,31.8,5.787V30.142q0,2.736.969,3.573a5.177,5.177,0,0,0,3.3.865v1.349H22.331V34.58q2.472-.028,3.371-.962t.9-3.476V17.163H9.466v12.98q0,4.332,4.269,4.437v1.349H0V34.58q2.5-.028,3.385-.962a5.127,5.127,0,0,0,.884-3.476V5.787q0-2.723-.968-3.552A5.318,5.318,0,0,0,0,1.348Z" fill="#747a18"/>
          </g>
          <g id="Group_81" data-name="Group 81" transform="translate(141.964 99.25)">
            <path id="Path_119" data-name="Path 119" d="M4.511,0h1.32V10.731H3.782q-.059-4.215-2.417-6.1T-5.827,2.753H-7.962Q-8.269,5.814-8.27,8.23q0,4.8,1.867,7.08t6.026,2.275H2.376v1.968l-10.337.281V35.984h2.977q9.441,0,10.816-8.989H7.825l-2.3,11.574h-1.4Q4.09,37.332,3.05,37.333H-17.428V35.984q2.528-.028,3.4-.949t.871-3.489V7.223q0-2.753-.969-3.585a5.316,5.316,0,0,0-3.3-.885V1.4H2.629Q4.455,1.4,4.511,0" transform="translate(17.428)" fill="#747a18"/>
          </g>
          <g id="Group_82" data-name="Group 82" transform="translate(186.779 100.654)">
            <path id="Path_120" data-name="Path 120" d="M0,0H22.08q7.415,0,11.11,3.541t3.693,10.646a21.6,21.6,0,0,1-6,15.393q-6,6.35-16.166,6.349H0V34.58q2.528-.028,3.4-.962a5.184,5.184,0,0,0,.871-3.476V5.787q0-2.723-.955-3.552A5.3,5.3,0,0,0,0,1.348ZM9.466,3.425v28.04a17.415,17.415,0,0,0,8.764,2.61,11.888,11.888,0,0,0,9.692-4.519q3.68-4.519,3.68-11.732,0-7.239-3.215-11.9T17.613,1.265a14.352,14.352,0,0,0-8.147,2.16" fill="#747a18"/>
          </g>
          <g id="Group_83" data-name="Group 83" transform="translate(244.574 100.654)">
            <path id="Path_121" data-name="Path 121" d="M0,0H17.866q3.988,0,5.969,1.545a5.517,5.517,0,0,1,1.979,4.636,10.569,10.569,0,0,1-2.232,6.445,21.578,21.578,0,0,1-6.7,5.549l6.264,9.692q4.213,6.516,7.781,6.713v1.349H24.187q-2.024,0-3.6-2.416L9.466,16.21V30.142q0,4.3,4.327,4.437v1.349H0V34.58q2.528-.028,3.4-.962a5.184,5.184,0,0,0,.871-3.476V5.787q0-2.723-.955-3.552A5.3,5.3,0,0,0,0,1.348ZM9.466,2.751V14.444q3.286,2.385,5.646,2.383a4.318,4.318,0,0,0,3.708-1.668,8.315,8.315,0,0,0,1.236-4.977A10.364,10.364,0,0,0,18.23,3.746a5.426,5.426,0,0,0-4.437-2.4,7.452,7.452,0,0,0-4.327,1.4" fill="#747a18"/>
          </g>
          <g id="Group_84" data-name="Group 84" transform="translate(291.66 99.166)">
            <path id="Path_122" data-name="Path 122" d="M3.544,0H5.2l9.93,28.716a24.386,24.386,0,0,0,2.4,5.233,3.99,3.99,0,0,0,3.186,2.119v1.349h-10.1V36.068h.671c.325,0,.488-.308.488-.926a1.988,1.988,0,0,0-.112-.618L8.312,24.748H-4.006a27.606,27.606,0,0,0-1.91,8.118A3.091,3.091,0,0,0-5,35.169a3.273,3.273,0,0,0,2.4.9h1.489v1.349H-13.695V36.068q3.146-.168,5.731-6.713ZM2.575,8.051-3.309,23.006H7.714Z" transform="translate(13.695)" fill="#747a18"/>
          </g>
          <g id="Group_85" data-name="Group 85" transform="translate(85.63 153.559)">
            <path id="Path_123" data-name="Path 123" d="M4.43,7.277A14.5,14.5,0,0,1-2.705,9.441,13.178,13.178,0,0,1-9.868,7.179a14.769,14.769,0,0,1-5.394-6.026A18.936,18.936,0,0,1-17.115-7.33a20.8,20.8,0,0,1,2.808-10.7,20.046,20.046,0,0,1,7.416-7.443A20.517,20.517,0,0,1,3.5-28.117a35.411,35.411,0,0,1,10.2,1.741v8.512H11.65A8.495,8.495,0,0,0,8.109-24.08,12.108,12.108,0,0,0,.891-26.263,12.6,12.6,0,0,0-8.477-22.3q-3.863,3.961-3.863,10.9A19.064,19.064,0,0,0-8.408.915a11.836,11.836,0,0,0,9.523,4.9A9.23,9.23,0,0,0,7.267,3.739a6.331,6.331,0,0,0,2.472-5q0-4.215-5.31-4.215H3.419V-6.824H17.437v1.348a2.453,2.453,0,0,0-2.08,1.143A4.655,4.655,0,0,0,14.6-1.655V9.916h-1.4q-.142-4.941-3.736-4.941a7.292,7.292,0,0,0-3.9,1.572q-.646.421-1.124.73" transform="translate(17.115 28.117)" fill="#747a18"/>
          </g>
          <g id="Group_86" data-name="Group 86" transform="translate(128.379 152.885)">
            <path id="Path_124" data-name="Path 124" d="M3.544,0H5.2l9.93,28.716a24.325,24.325,0,0,0,2.4,5.233,3.988,3.988,0,0,0,3.187,2.119v1.349h-10.1V36.068h.668c.326,0,.491-.308.491-.926a1.992,1.992,0,0,0-.113-.618L8.312,24.748H-4.006a27.615,27.615,0,0,0-1.91,8.118A3.091,3.091,0,0,0-5,35.169a3.273,3.273,0,0,0,2.4.9h1.489v1.349H-13.695V36.068q3.146-.168,5.731-6.713ZM2.575,8.051-3.309,23.006H7.714Z" transform="translate(13.695)" fill="#747a18"/>
          </g>
          <g id="Group_87" data-name="Group 87" transform="translate(171.644 154.373)">
            <path id="Path_125" data-name="Path 125" d="M0,0H17.866q3.988,0,5.969,1.545a5.517,5.517,0,0,1,1.979,4.636,10.575,10.575,0,0,1-2.232,6.446,21.593,21.593,0,0,1-6.7,5.548l6.264,9.692q4.213,6.516,7.781,6.713v1.349H24.187q-2.024,0-3.6-2.416L9.466,16.21V30.142q0,4.3,4.327,4.437v1.349H0V34.58q2.528-.028,3.4-.962a5.184,5.184,0,0,0,.871-3.476V5.787q0-2.723-.955-3.552A5.3,5.3,0,0,0,0,1.348ZM9.466,2.751V14.444q3.286,2.385,5.646,2.383a4.318,4.318,0,0,0,3.708-1.668,8.315,8.315,0,0,0,1.236-4.977A10.364,10.364,0,0,0,18.23,3.746a5.426,5.426,0,0,0-4.437-2.4,7.452,7.452,0,0,0-4.327,1.4" fill="#747a18"/>
          </g>
          <g id="Group_88" data-name="Group 88" transform="translate(210.213 154.373)">
            <path id="Path_126" data-name="Path 126" d="M0,0H22.08q7.415,0,11.11,3.541t3.693,10.646a21.6,21.6,0,0,1-6,15.393q-6,6.35-16.166,6.349H0V34.58q2.528-.028,3.4-.962a5.184,5.184,0,0,0,.871-3.476V5.787q0-2.723-.955-3.552A5.3,5.3,0,0,0,0,1.348ZM9.466,3.425v28.04a17.415,17.415,0,0,0,8.764,2.61,11.888,11.888,0,0,0,9.692-4.519q3.68-4.519,3.68-11.732,0-7.239-3.215-11.9T17.613,1.265a14.352,14.352,0,0,0-8.147,2.16" fill="#747a18"/>
          </g>
          <g id="Group_89" data-name="Group 89" transform="translate(258.164 152.969)">
            <path id="Path_127" data-name="Path 127" d="M4.511,0H5.83V10.731H3.781q-.057-4.215-2.417-6.1t-7.19-1.882H-7.962Q-8.269,5.816-8.27,8.23q0,4.8,1.867,7.08t6.026,2.275H2.376v1.968l-10.337.281V35.984h2.977Q4.455,35.984,5.83,27h2l-2.3,11.574h-1.4q-.028-1.237-1.069-1.236H-17.428V35.984q2.528-.028,3.4-.949t.872-3.489V7.223q0-2.753-.969-3.585a5.316,5.316,0,0,0-3.3-.885V1.4H2.629Q4.455,1.4,4.511,0" transform="translate(17.428)" fill="#747a18"/>
          </g>
          <g id="Group_90" data-name="Group 90" transform="translate(292.041 154.373)">
            <path id="Path_128" data-name="Path 128" d="M.19,0H9.408L29.854,27.464v-8.35A52.821,52.821,0,0,0,28.626,6.352q-1.227-4.721-3.911-5V0H36.989V1.348q-5.138.48-5.142,16.883V37.219h-1.3L6.287,4.466V14.917q0,9.915,1.221,14.621t3.975,5.042v1.349H-.736V34.58Q4.406,33.794,4.4,15.227V5.535q0-2.5-.969-3.316A5.281,5.281,0,0,0,.19,1.348Z" transform="translate(0.736)" fill="#747a18"/>
          </g>
        </g>
      </g>
      <g id="Group_74-2" data-name="Group 74" transform="translate(199.892 123.392)">
        <path id="Path_111-2" data-name="Path 111" d="M31.876,16.067c-6.068,7.509-9.417,19.91-20.864,31.552A70.312,70.312,0,0,1,3.627,53.7a75.455,75.455,0,0,1-2.41-9.076C-2.156,26-5.832-32.584-5.832-32.584s-7.227,60.5-6.057,81.14c.481,8.428,3.427,17.35,6.205,27.667-3.7-.684-7.186-1.256-9.2-1.387a86.944,86.944,0,0,0-10.452.487c-1.648-3.751-4.537-10.252-5.836-12.682-1.742-3.256-5.874-8.806-7.292-12-2.093-4.73-7.37-20.4-7.37-20.4s3.353,17.43,5.186,22.964c1.571,4.729,5.356,8.811,7.418,17.269a51.724,51.724,0,0,1,.821,5.206,19.438,19.438,0,0,1-3.648-.3c-7.194-1.46-28.587-9.926-28.587-9.926s20.113,14.873,27.624,17.925c6.417,2.614,15.537-.4,25.939,5.868,2.465,1.484,6.891,5.874,9.851,8.944a107.141,107.141,0,0,1,.593,17.941c-.582,11.377-8.652,40.675-8.652,40.675s11.191,4.249,21.279,3.713c4.726-.248,18.568-3.672,18.568-3.672s-7.951-46.876-11.909-61.278C16.863,89.064,13.231,79.82,9.711,70.59,14.219,63.646,22,51.531,24.73,46.469,28.393,39.68,33.725,25.3,37.556,19.343c5.659-8.8,25.714-33.892,25.714-33.892S38.98,7.273,31.876,16.067" transform="translate(64.646 32.584)" fill="#fff"/>
      </g>
      <g id="Group_85-2" data-name="Group 85" transform="translate(297.065 272.142)">
        <path id="Path_123-2" data-name="Path 123" d="M4.43,7.277A14.5,14.5,0,0,1-2.705,9.441,13.178,13.178,0,0,1-9.868,7.179a14.769,14.769,0,0,1-5.394-6.026A18.936,18.936,0,0,1-17.115-7.33a20.8,20.8,0,0,1,2.808-10.7,20.046,20.046,0,0,1,7.416-7.443A20.517,20.517,0,0,1,3.5-28.117a35.411,35.411,0,0,1,10.2,1.741v8.512H11.65A8.495,8.495,0,0,0,8.109-24.08,12.108,12.108,0,0,0,.891-26.263,12.6,12.6,0,0,0-8.477-22.3q-3.863,3.961-3.863,10.9A19.064,19.064,0,0,0-8.408.915a11.836,11.836,0,0,0,9.523,4.9A9.23,9.23,0,0,0,7.267,3.739a6.331,6.331,0,0,0,2.472-5q0-4.215-5.31-4.215H3.419V-6.824H17.437v1.348a2.453,2.453,0,0,0-2.08,1.143A4.655,4.655,0,0,0,14.6-1.655V9.916h-1.4q-.142-4.941-3.736-4.941a7.292,7.292,0,0,0-3.9,1.572q-.646.421-1.124.73" transform="translate(17.115 28.117)" fill="#fff"/>
      </g>
      <g id="Group_86-2" data-name="Group 86" transform="translate(339.813 271.468)">
        <path id="Path_124-2" data-name="Path 124" d="M3.544,0H5.2l9.93,28.716a24.325,24.325,0,0,0,2.4,5.233,3.988,3.988,0,0,0,3.187,2.119v1.349h-10.1V36.068h.668c.326,0,.491-.308.491-.926a1.992,1.992,0,0,0-.113-.618L8.312,24.748H-4.006a27.615,27.615,0,0,0-1.91,8.118A3.091,3.091,0,0,0-5,35.169a3.273,3.273,0,0,0,2.4.9h1.489v1.349H-13.695V36.068q3.146-.168,5.731-6.713ZM2.575,8.051-3.309,23.006H7.714Z" transform="translate(13.695)" fill="#fff"/>
      </g>
      <g id="Group_87-2" data-name="Group 87" transform="translate(383.079 272.956)">
        <path id="Path_125-2" data-name="Path 125" d="M0,0H17.866q3.988,0,5.969,1.545a5.517,5.517,0,0,1,1.979,4.636,10.575,10.575,0,0,1-2.232,6.446,21.593,21.593,0,0,1-6.7,5.548l6.264,9.692q4.213,6.516,7.781,6.713v1.349H24.187q-2.024,0-3.6-2.416L9.466,16.21V30.142q0,4.3,4.327,4.437v1.349H0V34.58q2.528-.028,3.4-.962a5.184,5.184,0,0,0,.871-3.476V5.787q0-2.723-.955-3.552A5.3,5.3,0,0,0,0,1.348ZM9.466,2.751V14.444q3.286,2.385,5.646,2.383a4.318,4.318,0,0,0,3.708-1.668,8.315,8.315,0,0,0,1.236-4.977A10.364,10.364,0,0,0,18.23,3.746a5.426,5.426,0,0,0-4.437-2.4,7.452,7.452,0,0,0-4.327,1.4" fill="#fff"/>
      </g>
      <g id="Group_88-2" data-name="Group 88" transform="translate(421.647 272.956)">
        <path id="Path_126-2" data-name="Path 126" d="M0,0H22.08q7.415,0,11.11,3.541t3.693,10.646a21.6,21.6,0,0,1-6,15.393q-6,6.35-16.166,6.349H0V34.58q2.528-.028,3.4-.962a5.184,5.184,0,0,0,.871-3.476V5.787q0-2.723-.955-3.552A5.3,5.3,0,0,0,0,1.348ZM9.466,3.425v28.04a17.415,17.415,0,0,0,8.764,2.61,11.888,11.888,0,0,0,9.692-4.519q3.68-4.519,3.68-11.732,0-7.239-3.215-11.9T17.613,1.265a14.352,14.352,0,0,0-8.147,2.16" fill="#fff"/>
      </g>
      <g id="Group_89-2" data-name="Group 89" transform="translate(469.599 271.552)">
        <path id="Path_127-2" data-name="Path 127" d="M4.511,0H5.83V10.731H3.781q-.057-4.215-2.417-6.1t-7.19-1.882H-7.962Q-8.269,5.816-8.27,8.23q0,4.8,1.867,7.08t6.026,2.275H2.376v1.968l-10.337.281V35.984h2.977Q4.455,35.984,5.83,27h2l-2.3,11.574h-1.4q-.028-1.237-1.069-1.236H-17.428V35.984q2.528-.028,3.4-.949t.872-3.489V7.223q0-2.753-.969-3.585a5.316,5.316,0,0,0-3.3-.885V1.4H2.629Q4.455,1.4,4.511,0" transform="translate(17.428)" fill="#fff"/>
      </g>
      <g id="Group_90-2" data-name="Group 90" transform="translate(503.476 272.956)">
        <path id="Path_128-2" data-name="Path 128" d="M.19,0H9.408L29.854,27.464v-8.35A52.821,52.821,0,0,0,28.626,6.352q-1.227-4.721-3.911-5V0H36.989V1.348q-5.138.48-5.142,16.883V37.219h-1.3L6.287,4.466V14.917q0,9.915,1.221,14.621t3.975,5.042v1.349H-.736V34.58Q4.406,33.794,4.4,15.227V5.535q0-2.5-.969-3.316A5.281,5.281,0,0,0,.19,1.348Z" transform="translate(0.736)" fill="#fff"/>
      </g>
    </g>
  </g>
</svg>
