<svg xmlns="http://www.w3.org/2000/svg" xmlns:xlink="http://www.w3.org/1999/xlink" width="138.893" height="88.777" viewBox="0 0 138.893 88.777">
  <defs>
    <clipPath id="clip-path">
      <path id="Path_129" data-name="Path 129" d="M0-89.191H123.058V-168.2H0Z" transform="translate(0 168.204)" fill="#fff"/>
    </clipPath>
  </defs>
  <g id="Group_136" data-name="Group 136" transform="translate(-4272.29 -1220.418)">
    <g id="Group_115" data-name="Group 115" transform="translate(4272.29 1220.418)">
      <g id="Group_74" data-name="Group 74" transform="translate(11.528 11.558)">
        <path id="Path_111" data-name="Path 111" d="M-28.627-14.429c-2.264,2.8-3.514,7.43-7.786,11.774A26.238,26.238,0,0,1-39.169-.387a28.158,28.158,0,0,1-.9-3.387c-1.259-6.949-2.63-28.81-2.63-28.81s-2.7,22.576-2.26,30.279C-44.78.84-43.68,4.169-42.643,8.019c-1.38-.255-2.682-.469-3.434-.518a32.444,32.444,0,0,0-3.9.182c-.615-1.4-1.693-3.826-2.178-4.733-.65-1.215-2.192-3.286-2.721-4.478-.781-1.765-2.75-7.612-2.75-7.612s1.251,6.5,1.935,8.569c.586,1.765,2,3.288,2.768,6.444a19.3,19.3,0,0,1,.306,1.943,7.254,7.254,0,0,1-1.361-.11C-56.663,7.162-64.646,4-64.646,4s7.506,5.55,10.308,6.689c2.395.976,5.8-.151,9.68,2.19a26.079,26.079,0,0,1,3.676,3.337,39.982,39.982,0,0,1,.221,6.695c-.217,4.246-3.229,15.178-3.229,15.178a22.856,22.856,0,0,0,7.941,1.386,63.935,63.935,0,0,0,6.929-1.37s-2.967-17.492-4.444-22.867c-.666-2.43-2.021-5.88-3.335-9.324,1.682-2.591,4.585-7.112,5.6-9,1.367-2.533,3.356-7.9,4.786-10.123,2.112-3.283,9.6-12.647,9.6-12.647s-9.064,8.143-11.715,11.425" transform="translate(64.646 32.584)" fill="#fff"/>
      </g>
      <g id="Group_75" data-name="Group 75" transform="translate(0.805 26.263)">
        <path id="Path_112" data-name="Path 112" d="M-19.115-23.314c.2,7.344-14.689,6.351-18.659,4.763-7.743-3.176-6.552-19.852-.2-15.483-3.773.6-5.162-5.757-4.17-8.338,1.389-3.374,9.33-7.74,11.911-3.771-2.381-5.758,12.307-10.521,14.689-1.39.993,3.177-.2,6.948-3.176,8.338a3.354,3.354,0,0,1,3.176,3.574c-.2,2.58-2.581,2.58-3.573,3.971-1.191,2.38.992,5.756.794,8.535-.4.4-.4-.2-.794-.2" transform="translate(43.166 52.647)" fill="#fff"/>
      </g>
      <g id="Group_76" data-name="Group 76" transform="translate(0 25.709)">
        <path id="Path_113" data-name="Path 113" d="M-18.808-23.856c-.43,6.383-12.471,5.939-16.8,3.852-2.724-1.312-4.08-4.131-4.62-6.982-.249-1.313-.8-9.183,2.824-7.107l1.376-1.352c-2.755-.049-3.841-3.61-3.663-5.856.284-3.6,6.423-8.811,9.865-5.028.5.549,2.549.12,2.281-.8-1.231-4.237,4.867-6.173,8.026-5.213a6.767,6.767,0,0,1,1.548,12.059c-.481.3-.652.958.042,1.118q4.1.757,1.19,5.171a5.632,5.632,0,0,0-1.108.725c-.2.411-.734.645-.959,1.078-1.323,2.536.667,6.109.8,8.724l1.327-1.049c0-.026,0-.052,0-.079-.734-.457-2.893.586-1.866,1.226a2.021,2.021,0,0,0,1.585.316c.549-.069,1.361-.38,1.327-1.049-.1-1.878-1.225-4.073-1.073-5.881.3-3.584,2.029-2.692,3.28-4.787a3.755,3.755,0,0,0,.573-1.838c.059-1.774-1.683-2.193-1.933-3.434-.132-.655.906-1.369,1.575-2.815a8.446,8.446,0,0,0-.613-7.9c-3.6-5.461-18.355-3.531-16.089,4.267l2.28-.8c-3.524-3.872-10.424-.841-13.14,2.713-2.728,3.569-1.249,10.529,3.861,10.62.46.008,2.442-.742,1.376-1.352-8.794-5.033-8.349,11.658-3.5,15.59,5.037,4.085,22.035,4.245,22.616-4.384.071-1.06-2.322-.636-2.382.256" transform="translate(42.473 53.871)" fill="#fff"/>
      </g>
      <g id="Group_77" data-name="Group 77" transform="translate(9.943 0.695)">
        <path id="Path_114" data-name="Path 114" d="M-7.119-21.072c-4.764-1.588-10.124-5.161-8.734-11.115,1.191-5.163,7.542-9.53,12.9-7.744-1.191-6.351,10.323-8.535,14.294-7.344,3.771.992,11.116,7.941,4.566,10.52,1.588-2.78,12.306-3.375,12.7,1.191.2,2.58-5.757,4.566-7.94,4.765a4.152,4.152,0,0,1,4.963,2.183c1.624,4.055-5.085,6.027-6.643,9.015-2.287,4.388,1.424,10.118,5.232,12.186,3.651,1.981,8.946,2.139,11.534-1.766.827-1.251,1.475-4.719-.8-4.943,3.406,3.321,8.756-.979,9.117-4.656.445-4.55-1.154-12.378-7.287-11.6-.134.933.486.986,1.33,1.344,2.959,1.256,5.638-1.367,5.964-4.1.588-4.92-2.976-10.07-8.316-8.8-4.191,1-9.313-.052-12.661,3.838-2.4,2.788-2.571,7.862.5,10.213-4.944,2.96-4.359,6.789-6.062,11.418-1.054,2.858-3.848,4.071-6.619,4.7-1.4.316-7.289,2.082-7.876.64C2.759-9.179.849-9-.788-9.759c-2.131-.984-2.742-2.746-2.515-4.958.352,2.1-4.567.865-5.323-.865-.576-1.316-.364-5.07,1.309-5.489" transform="translate(16.076 47.585)" fill="#fff"/>
      </g>
      <g id="Group_78" data-name="Group 78" transform="translate(8.795 0)">
        <path id="Path_115" data-name="Path 115" d="M-8.782-21.172c-3.039-1.132-6.808-2.876-8.12-6.137C-19.351-33.4-13.036-40.367-6.286-38.825c.567.13,1.973-.174,1.913-.954-.4-5.3,7.33-7.448,11.606-6.564,3.123.646,11.221,6.625,5.335,9.715l1.836.364c1.6-1.943,5.45-1.854,7.6-1.127,5.011,1.7-.3,5.86-3.771,6.415-1.116.179-1.982,1.529-.329,1.294q6.349,3.459,2.05,6.256l-1.035.811a17.354,17.354,0,0,0-2.871,2.428A6.966,6.966,0,0,0,14.5-15.745c.026,4.908,4.485,9.336,9.02,10.463,3.212.8,7.171.332,9.624-2.087,1.828-1.8,3.241-5.637.156-6.854-.485-.192-2.783.516-2.046,1.03C42.4-5.411,48.489-30.912,34.647-30.571c-.384.009-1.88.293-1.649.982,1.743,5.192,9.009.225,9.664-3.225A8.745,8.745,0,0,0,39.51-40.9c-3.111-2.323-6.8-1.042-10.3-.665-6.733.725-12.829,3.826-11.314,11.6.28,1.441,1.168,1.8.71,3.376-.315,1.083-2.205,2.514-2.742,3.69-.785,1.717-.714,3.922-1.608,5.535-.818,1.476-9.286,9.276-12.7,6.24a1.728,1.728,0,0,0-2.286.613q-4.659-.554-3.988-4.06c0-.764-2.235-.191-2.37.469a2.8,2.8,0,0,1-3.171-2.169A4.421,4.421,0,0,1-9.191-20.26c1.345-.864-.713-1.171-1.467-.688C-18.3-16.044-5.84-8.973-4.726-14.4l-2.37.469C-7.1-9.064-.634-5.588,1.632-10.81L-.654-10.2c2.391,2.124,8.461-.132,10.94-1.026,8.037-2.9,5.069-11.377,11.452-15.849.217-.152.666-.508.368-.805C15.46-34.5,25.166-40.1,31.387-40.528c2.68-.184,5.032-.71,7.054,1.605a8.3,8.3,0,0,1,1.724,3.652q1.5,4.89-4.8,5.047l-1.649.982c3.892-.1,5.674,3.207,6.322,6.465.524,2.637.034,13.285-6.587,8.662l-2.046,1.03c5.3,2.091-3.838,8.248-8.848,5.571a11.37,11.37,0,0,1-5.5-7.286c-.967-5.161,3.253-6.084,5.878-9.262,3.28-3.971-.083-7.572-4.713-6.915q-.165.648-.329,1.294c3.062-.489,13.155-3.878,7.727-8.125-3.287-2.571-10.81-1.675-13.43,1.5-.733.89,1.564.506,1.836.364,7.4-3.883-1.146-11.3-6.517-11.808-5.279-.494-14.774,1.885-14.261,8.6l1.913-.955a12.658,12.658,0,0,0-13.608,5.656c-4.122,6.872,1.627,12.121,7.767,14.409.705.262,2.856-.777,1.889-1.138" transform="translate(19.832 47.812)" fill="#fff"/>
      </g>
    </g>
    <g id="Group_91" data-name="Group 91" transform="translate(4288.125 1230.182)" clip-path="url(#clip-path)">
      <g id="Group_80" data-name="Group 80" transform="translate(31.745 37.561)">
        <path id="Path_118" data-name="Path 118" d="M0,0H5.125V.5A1.8,1.8,0,0,0,3.858.87a1.911,1.911,0,0,0-.325,1.289v3.6H9.927v-3.6A1.757,1.757,0,0,0,9.565.834,1.983,1.983,0,0,0,8.333.5V0h5.126V.5A1.8,1.8,0,0,0,12.191.87a1.911,1.911,0,0,0-.326,1.289v9.089a1.777,1.777,0,0,0,.362,1.333,1.932,1.932,0,0,0,1.232.323v.5H8.333v-.5a1.769,1.769,0,0,0,1.258-.359,1.89,1.89,0,0,0,.335-1.3V6.4H3.532v4.844A1.458,1.458,0,0,0,5.125,12.9v.5H0v-.5a1.767,1.767,0,0,0,1.263-.359,1.913,1.913,0,0,0,.33-1.3V2.159A1.757,1.757,0,0,0,1.232.834,1.984,1.984,0,0,0,0,.5Z" fill="#fff"/>
      </g>
      <g id="Group_81" data-name="Group 81" transform="translate(52.976 37.037)">
        <path id="Path_119" data-name="Path 119" d="M-9.241,0h.493V4h-.765a2.793,2.793,0,0,0-.9-2.275,4.265,4.265,0,0,0-2.684-.7h-.8q-.115,1.142-.115,2.044a4.126,4.126,0,0,0,.7,2.642,2.748,2.748,0,0,0,2.249.849h1.027V7.3l-3.858.1v6.027h1.111q3.523,0,4.036-3.354H-8l-.859,4.319h-.524q-.011-.462-.4-.461h-7.642v-.5a1.779,1.779,0,0,0,1.268-.354,1.93,1.93,0,0,0,.325-1.3V2.7A1.781,1.781,0,0,0-16.2,1.358a1.984,1.984,0,0,0-1.232-.33v-.5h7.484q.681,0,.7-.524" transform="translate(17.428)" fill="#fff"/>
      </g>
      <g id="Group_82" data-name="Group 82" transform="translate(69.7 37.561)">
        <path id="Path_120" data-name="Path 120" d="M0,0H8.239a5.785,5.785,0,0,1,4.146,1.321,5.261,5.261,0,0,1,1.378,3.973,8.06,8.06,0,0,1-2.238,5.744,7.9,7.9,0,0,1-6.032,2.369H0v-.5a1.764,1.764,0,0,0,1.268-.359,1.934,1.934,0,0,0,.325-1.3V2.159A1.776,1.776,0,0,0,1.237.834,1.978,1.978,0,0,0,0,.5ZM3.532,1.278V11.742a6.5,6.5,0,0,0,3.27.974,4.436,4.436,0,0,0,3.617-1.686,6.712,6.712,0,0,0,1.373-4.378,7.653,7.653,0,0,0-1.2-4.441A4.533,4.533,0,0,0,6.573.472a5.356,5.356,0,0,0-3.04.806" fill="#fff"/>
      </g>
      <g id="Group_83" data-name="Group 83" transform="translate(91.267 37.561)">
        <path id="Path_121" data-name="Path 121" d="M0,0H6.667A3.594,3.594,0,0,1,8.895.576a2.059,2.059,0,0,1,.738,1.73A3.944,3.944,0,0,1,8.8,4.712,8.052,8.052,0,0,1,6.3,6.782L8.638,10.4q1.572,2.432,2.9,2.505v.5H9.026a1.64,1.64,0,0,1-1.342-.9L3.532,6.049v5.2A1.473,1.473,0,0,0,5.147,12.9v.5H0v-.5a1.764,1.764,0,0,0,1.268-.359,1.934,1.934,0,0,0,.325-1.3V2.159A1.776,1.776,0,0,0,1.237.834,1.979,1.979,0,0,0,0,.5ZM3.532,1.026V5.39a3.822,3.822,0,0,0,2.107.889,1.611,1.611,0,0,0,1.384-.622A3.1,3.1,0,0,0,7.484,3.8,3.867,3.867,0,0,0,6.8,1.4,2.025,2.025,0,0,0,5.147.5a2.781,2.781,0,0,0-1.615.523" fill="#fff"/>
      </g>
      <g id="Group_84" data-name="Group 84" transform="translate(108.838 37.005)">
        <path id="Path_122" data-name="Path 122" d="M-7.262,0h.619l3.705,10.716a9.1,9.1,0,0,0,.9,1.953,1.489,1.489,0,0,0,1.189.791v.5H-4.621v-.5h.25c.121,0,.182-.115.182-.346a.742.742,0,0,0-.042-.231L-5.483,9.235h-4.6a10.3,10.3,0,0,0-.713,3.029,1.153,1.153,0,0,0,.341.859,1.221,1.221,0,0,0,.9.335H-9v.5h-4.7v-.5q1.174-.063,2.139-2.505Zm-.362,3-2.2,5.581h4.113Z" transform="translate(13.695)" fill="#fff"/>
      </g>
      <g id="Group_85" data-name="Group 85" transform="translate(31.954 57.303)">
        <path id="Path_123" data-name="Path 123" d="M-9.075-14.909a5.41,5.41,0,0,1-2.663.807,4.918,4.918,0,0,1-2.673-.844,5.511,5.511,0,0,1-2.013-2.249,7.066,7.066,0,0,1-.691-3.166,7.763,7.763,0,0,1,1.048-3.994A7.481,7.481,0,0,1-13.3-27.131a7.656,7.656,0,0,1,3.879-.986,13.214,13.214,0,0,1,3.8.65v3.176h-.765A3.17,3.17,0,0,0-7.7-26.611a4.518,4.518,0,0,0-2.694-.815,4.7,4.7,0,0,0-3.5,1.478,5.577,5.577,0,0,0-1.442,4.068,7.114,7.114,0,0,0,1.467,4.6,4.417,4.417,0,0,0,3.554,1.829,3.444,3.444,0,0,0,2.3-.776A2.363,2.363,0,0,0-7.094-18.1q0-1.573-1.981-1.573h-.377v-.5h5.231v.5A.915.915,0,0,0-5-19.242a1.737,1.737,0,0,0-.283,1v4.318H-5.8q-.053-1.844-1.394-1.844a2.721,2.721,0,0,0-1.457.587l-.419.272" transform="translate(17.115 28.117)" fill="#fff"/>
      </g>
      <g id="Group_86" data-name="Group 86" transform="translate(47.907 57.051)">
        <path id="Path_124" data-name="Path 124" d="M-7.262,0h.619l3.705,10.716a9.077,9.077,0,0,0,.9,1.953,1.488,1.488,0,0,0,1.189.791v.5H-4.62v-.5h.249c.122,0,.183-.115.183-.346a.743.743,0,0,0-.042-.231L-5.483,9.235h-4.6a10.3,10.3,0,0,0-.713,3.029,1.153,1.153,0,0,0,.341.859,1.221,1.221,0,0,0,.9.335H-9v.5h-4.7v-.5q1.174-.063,2.139-2.505Zm-.362,3-2.2,5.581h4.113Z" transform="translate(13.695)" fill="#fff"/>
      </g>
      <g id="Group_87" data-name="Group 87" transform="translate(64.052 57.607)">
        <path id="Path_125" data-name="Path 125" d="M0,0H6.667A3.594,3.594,0,0,1,8.895.576a2.059,2.059,0,0,1,.738,1.73A3.946,3.946,0,0,1,8.8,4.712a8.058,8.058,0,0,1-2.5,2.07L8.638,10.4q1.572,2.432,2.9,2.505v.5H9.026a1.64,1.64,0,0,1-1.342-.9L3.532,6.049v5.2A1.473,1.473,0,0,0,5.147,12.9v.5H0v-.5a1.764,1.764,0,0,0,1.268-.359,1.934,1.934,0,0,0,.325-1.3V2.159A1.776,1.776,0,0,0,1.237.834,1.978,1.978,0,0,0,0,.5ZM3.532,1.026V5.39a3.822,3.822,0,0,0,2.107.889,1.611,1.611,0,0,0,1.384-.622A3.1,3.1,0,0,0,7.484,3.8,3.867,3.867,0,0,0,6.8,1.4,2.025,2.025,0,0,0,5.147.5a2.781,2.781,0,0,0-1.615.523" fill="#fff"/>
      </g>
      <g id="Group_88" data-name="Group 88" transform="translate(78.444 57.607)">
        <path id="Path_126" data-name="Path 126" d="M0,0H8.239a5.786,5.786,0,0,1,4.146,1.321,5.261,5.261,0,0,1,1.378,3.973,8.06,8.06,0,0,1-2.238,5.744,7.9,7.9,0,0,1-6.032,2.369H0v-.5a1.764,1.764,0,0,0,1.268-.359,1.934,1.934,0,0,0,.325-1.3V2.159A1.776,1.776,0,0,0,1.237.834,1.979,1.979,0,0,0,0,.5ZM3.532,1.278V11.742a6.5,6.5,0,0,0,3.27.974,4.436,4.436,0,0,0,3.617-1.686,6.712,6.712,0,0,0,1.373-4.378,7.656,7.656,0,0,0-1.2-4.441A4.534,4.534,0,0,0,6.573.472a5.356,5.356,0,0,0-3.04.806" fill="#fff"/>
      </g>
      <g id="Group_89" data-name="Group 89" transform="translate(96.338 57.083)">
        <path id="Path_127" data-name="Path 127" d="M-9.241,0h.492V4h-.765a2.79,2.79,0,0,0-.9-2.275,4.262,4.262,0,0,0-2.683-.7h-.8q-.115,1.143-.115,2.044a4.123,4.123,0,0,0,.7,2.642,2.748,2.748,0,0,0,2.249.849h1.027V7.3l-3.858.1v6.027h1.111q3.522,0,4.036-3.354H-8l-.86,4.319h-.524q-.011-.462-.4-.461h-7.641v-.5a1.777,1.777,0,0,0,1.268-.354,1.927,1.927,0,0,0,.326-1.3V2.7A1.781,1.781,0,0,0-16.2,1.358a1.984,1.984,0,0,0-1.232-.33v-.5h7.484q.681,0,.7-.524" transform="translate(17.428)" fill="#fff"/>
      </g>
      <g id="Group_90" data-name="Group 90" transform="translate(108.98 57.607)">
        <path id="Path_128" data-name="Path 128" d="M-.39,0H3.049l7.63,10.248V7.133a19.711,19.711,0,0,0-.458-4.762Q9.763.609,8.761.5V0h4.581V.5q-1.917.179-1.919,6.3v7.086h-.485L1.885,1.667v3.9a23.7,23.7,0,0,0,.456,5.456Q2.8,12.779,3.824,12.9v.5H-.736v-.5q1.919-.293,1.918-7.222V2.065A1.6,1.6,0,0,0,.821.828,1.971,1.971,0,0,0-.39.5Z" transform="translate(0.736)" fill="#fff"/>
      </g>
    </g>
  </g>
</svg>
