<svg xmlns="http://www.w3.org/2000/svg" width="360.909" height="221.989" viewBox="0 0 360.909 221.989">
  <g id="undraw_under_construction_46pa" transform="translate(0.02 0)">
    <path id="Path_46" data-name="Path 46" d="M371.979,230.338a73.957,73.957,0,0,1-2.166,17.846q-.729,2.951-1.694,5.779a68.246,68.246,0,0,1-2.733,6.839q-.781,1.691-1.652,3.315A44.6,44.6,0,0,1,360,282.04a46.2,46.2,0,0,1-22.423,23.1,47.167,47.167,0,0,1-20.018,4.6H79.588a59.959,59.959,0,0,1-30.157-8.062l-.141-.08q-1.958-1.146-3.818-2.427a59.882,59.882,0,0,1-7.835-6.459,58.306,58.306,0,0,1-8.613-10.673,56.95,56.95,0,0,1-8.76-30.406,71.7,71.7,0,0,1-9.192-35.507A70.365,70.365,0,0,1,25.291,173.06a60.546,60.546,0,0,1,6.039-6.72,56.206,56.206,0,0,1,6.907-5.653,53.738,53.738,0,0,1,6.128-3.677c.886-.45,1.774-.876,2.678-1.272.794-.352,1.6-.68,2.408-.99q1.462-.555,2.96-1.02t2.957-.815q2.145-.524,4.363-.852c1.226-.181,2.451-.306,3.677-.4.974-.074,1.958-.113,2.948-.126h.536c1.091,0,2.176.043,3.251.116.113-.227.236-.457.349-.68.429-.818.873-1.633,1.321-2.43a.077.077,0,0,1,0-.021c.077-.141.153-.279.233-.414.362-.653.738-1.3,1.125-1.94.178-.306.352-.594.533-.883a2.342,2.342,0,0,1,.126-.208q.276-.46.561-.919,1.419-2.267,2.951-4.455l.26-.374c.159-.227.306-.447.484-.674.423-.591.858-1.186,1.3-1.768.306-.417.613-.83.944-1.226q1.2-1.532,2.451-3.064t2.611-3.024c.123-.138.245-.273.374-.408l1.308-1.428h0c.064-.067.12-.129.181-.19h0c.156-.169.306-.337.475-.5.7-.745,1.422-1.474,2.145-2.2a116.8,116.8,0,0,1,11.736-10.225c.162-.129.328-.251.49-.374.778-.585,1.569-1.164,2.359-1.734a124.2,124.2,0,0,1,13.608-8.488c.325-.187.656-.362.99-.533a129.914,129.914,0,0,1,13.02-5.994c2.424-.959,4.9-1.86,7.4-2.684,1.661-.545,3.328-1.063,5.016-1.55q3.959-1.14,7.973-2.044a141.977,141.977,0,0,1,23.974-3.266q3.677-.187,7.437-.193a142.484,142.484,0,0,1,35.851,4.535,1.293,1.293,0,0,0,1.112.579h1.03c.447.123.892.245,1.339.374q3.747,1.079,7.388,2.356l.613.221a131.888,131.888,0,0,1,17.438,7.66,125.829,125.829,0,0,1,14.6,9.021q1.076.772,2.12,1.557,1.269-.812,2.58-1.557a50.749,50.749,0,0,1,10.688-4.556,48.751,48.751,0,0,1,23.974-.938,53.048,53.048,0,0,1,26.86,15.149,62.679,62.679,0,0,1,8.056,10.228c.169.264.337.53.5.8a67.416,67.416,0,0,1,5.129,10.225c.052.132.1.254.15.383a70.8,70.8,0,0,1,3.156,10.219c.037.178.08.352.116.53a73.574,73.574,0,0,1,1.508,10.225,1.983,1.983,0,0,0,.024.377q.193,2.669.2,5.393c0,1.624-.055,3.236-.156,4.835,0,.175-.025.355-.04.536-.028.463-.067.919-.107,1.385a58.147,58.147,0,0,1,6.551,6.18q1.339,1.462,2.592,3.034a64.537,64.537,0,0,1,6.68,10.225A71.758,71.758,0,0,1,371.979,230.338Z" transform="translate(-11.09 -87.76)" fill="#2c8a40" opacity="0.1"/>
    <path id="Path_47" data-name="Path 47" d="M423.865,767.754c0,2.093-7.21,4.054-19.791,5.739H166.1a59.958,59.958,0,0,1-30.157-8.062l-.141-.08c3.616-1.318,10.142-2.546,19.025-3.656h0l.4-.049c3.983-.487,8.436-.95,13.3-1.388a3.031,3.031,0,0,0,.371-.034h0q5.791-.515,12.321-.965c.138,0,.273-.025.411-.031q2.519-.181,5.142-.343h0l.674-.043c12.732-.791,27.2-1.422,42.9-1.839h.018q3.3-.092,6.665-.162,3.744-.089,7.581-.156c1.952-.043,3.928-.074,5.911-.1h.046c8.944-.135,18.186-.2,27.636-.2,23.367,0,45.454.426,65.025,1.192h.055c3.009.116,5.963.245,8.843.377l2.451.116q4.875.233,9.5.5h0C400.32,760.627,423.865,763.976,423.865,767.754Z" transform="translate(-97.601 -551.505)" fill="#2c8a40" opacity="0.1"/>
    <g id="Group_70" data-name="Group 70" transform="translate(190.378 121.03)" opacity="0.2">
      <path id="Path_48" data-name="Path 48" d="M676.548,741.855a5.831,5.831,0,0,1-.113.984q-3.2-.509-6.435-.919v-.264a5.173,5.173,0,0,1,.766-2.6,2.851,2.851,0,0,1,5.188.159A5.169,5.169,0,0,1,676.548,741.855Z" transform="translate(-658.491 -659.416)" fill="#3f3d56"/>
      <ellipse id="Ellipse_1" data-name="Ellipse 1" cx="4.293" cy="3.279" rx="4.293" ry="3.279" transform="translate(11.544 81.288) rotate(-88.19)" fill="#3f3d56"/>
      <ellipse id="Ellipse_2" data-name="Ellipse 2" cx="4.293" cy="3.279" rx="4.293" ry="3.279" transform="translate(11.711 76.042) rotate(-88.19)" fill="#3f3d56"/>
      <ellipse id="Ellipse_3" data-name="Ellipse 3" cx="4.293" cy="3.279" rx="4.293" ry="3.279" transform="translate(11.875 70.796) rotate(-88.19)" fill="#3f3d56"/>
      <ellipse id="Ellipse_4" data-name="Ellipse 4" cx="4.293" cy="3.279" rx="4.293" ry="3.279" transform="translate(12.04 65.55) rotate(-88.19)" fill="#3f3d56"/>
      <path id="Path_49" data-name="Path 49" d="M636.739,507.813a15.212,15.212,0,0,1-1.164-1.838l8.659-1.143-9.321-.224a15.744,15.744,0,0,1,.1-12.453l12.294,6.879L636.041,490.2a15.713,15.713,0,1,1,25.384,18.385,15.566,15.566,0,0,1,1.7,2.92l-11.365,5.454,12.051-3.625a15.731,15.731,0,0,1-3.009,14.68,15.713,15.713,0,1,1-24.685-.778,15.713,15.713,0,0,1,.613-19.421Z" transform="translate(-632.44 -482.747)" fill="#2c8a40"/>
      <path id="Path_50" data-name="Path 50" d="M664.479,598.553a15.627,15.627,0,0,1-3.677,9.6,15.713,15.713,0,1,1-24.685-.778C634.1,604.641,664.534,596.791,664.479,598.553Z" transform="translate(-632.44 -562.891)" opacity="0.1"/>
    </g>
    <g id="Group_71" data-name="Group 71" transform="translate(143.803 121.03)" opacity="0.2">
      <path id="Path_51" data-name="Path 51" d="M524.548,741.855a5.819,5.819,0,0,1-.113.984q-3.2-.509-6.435-.919v-.264a5.17,5.17,0,0,1,.766-2.6,2.851,2.851,0,0,1,5.188.159A5.168,5.168,0,0,1,524.548,741.855Z" transform="translate(-506.491 -659.416)" fill="#3f3d56"/>
      <ellipse id="Ellipse_5" data-name="Ellipse 5" cx="4.293" cy="3.279" rx="4.293" ry="3.279" transform="translate(11.541 81.289) rotate(-88.19)" fill="#3f3d56"/>
      <ellipse id="Ellipse_6" data-name="Ellipse 6" cx="4.293" cy="3.279" rx="4.293" ry="3.279" transform="translate(11.708 76.043) rotate(-88.19)" fill="#3f3d56"/>
      <ellipse id="Ellipse_7" data-name="Ellipse 7" cx="4.293" cy="3.279" rx="4.293" ry="3.279" transform="translate(11.872 70.797) rotate(-88.19)" fill="#3f3d56"/>
      <ellipse id="Ellipse_8" data-name="Ellipse 8" cx="4.293" cy="3.279" rx="4.293" ry="3.279" transform="translate(12.036 65.551) rotate(-88.19)" fill="#3f3d56"/>
      <path id="Path_52" data-name="Path 52" d="M484.739,507.813a15.228,15.228,0,0,1-1.164-1.838l8.659-1.143-9.321-.224a15.744,15.744,0,0,1,.095-12.453l12.294,6.879L484.041,490.2a15.713,15.713,0,1,1,25.383,18.385,15.56,15.56,0,0,1,1.7,2.92l-11.365,5.454,12.051-3.625a15.732,15.732,0,0,1-3.009,14.68,15.713,15.713,0,1,1-24.685-.778,15.713,15.713,0,0,1,.613-19.421Z" transform="translate(-480.441 -482.747)" fill="#2c8a40"/>
      <path id="Path_53" data-name="Path 53" d="M512.479,598.553a15.626,15.626,0,0,1-3.677,9.6,15.713,15.713,0,1,1-24.685-.778C482.1,604.641,512.534,596.791,512.479,598.553Z" transform="translate(-480.441 -562.891)" opacity="0.1"/>
    </g>
    <g id="Group_72" data-name="Group 72" transform="translate(254.341 48.17)" opacity="0.2">
      <path id="Path_54" data-name="Path 54" d="M925.981,743.554a11.429,11.429,0,0,1-.224,1.863q-6.159-.983-12.407-1.759v-.506a9.958,9.958,0,0,1,1.477-5,5.5,5.5,0,0,1,10,.306A9.967,9.967,0,0,1,925.981,743.554Z" transform="translate(-891.238 -584.903)" fill="#3f3d56"/>
      <ellipse id="Ellipse_9" data-name="Ellipse 9" cx="8.267" cy="6.315" rx="8.267" ry="6.315" transform="translate(22.192 156.429) rotate(-88.19)" fill="#3f3d56"/>
      <ellipse id="Ellipse_10" data-name="Ellipse 10" cx="8.267" cy="6.315" rx="8.267" ry="6.315" transform="translate(22.51 146.329) rotate(-88.19)" fill="#3f3d56"/>
      <ellipse id="Ellipse_11" data-name="Ellipse 11" cx="8.267" cy="6.315" rx="8.267" ry="6.315" transform="translate(22.832 136.229) rotate(-88.19)" fill="#3f3d56"/>
      <ellipse id="Ellipse_12" data-name="Ellipse 12" cx="8.267" cy="6.315" rx="8.267" ry="6.315" transform="translate(22.797 125.693) rotate(-88.282)" fill="#3f3d56"/>
      <path id="Path_55" data-name="Path 55" d="M849.439,293.166a30.409,30.409,0,0,1-2.24-3.533l16.669-2.2L845.928,287a30.3,30.3,0,0,1,.178-23.974l23.671,13.24L848.1,259.255a30.249,30.249,0,1,1,48.864,35.409,30.239,30.239,0,0,1,3.276,5.623l-21.881,10.507,23.2-6.986a30.258,30.258,0,0,1-5.77,28.236,30.249,30.249,0,1,1-47.525-1.5,30.259,30.259,0,0,1,1.177-37.383Z" transform="translate(-841.186 -244.965)" fill="#2c8a40"/>
      <path id="Path_56" data-name="Path 56" d="M902.875,467.719a30.132,30.132,0,0,1-7.047,18.489,30.249,30.249,0,1,1-47.525-1.5C844.4,479.436,902.982,464.327,902.875,467.719Z" transform="translate(-841.214 -399.123)" opacity="0.1"/>
    </g>
    <path id="Path_57" data-name="Path 57" d="M157.82,230.506l3.214-.009h4.532l5.73-93.083,56.745-94.692-2.467-2.647v-6.7L164.206,135.22Z" transform="translate(-109.475 -23.145)" fill="#f1c0c0"/>
    <path id="Path_58" data-name="Path 58" d="M169.43,245.672h4.189l5.73-93.083L236.094,57.9l-2.467-2.647L175.1,151.171Z" transform="translate(-117.528 -38.321)" opacity="0.1"/>
    <path id="Path_59" data-name="Path 59" d="M126.91,664.528,273.944,675.78l.126.009,142.3-8.751.107-.006v-6.009L259.68,658.146l-130.812-.126h-.956l-.1.674Z" transform="translate(-88.037 -456.392)" fill="#f1c0c0"/>
    <path id="Path_60" data-name="Path 60" d="M126.91,664.528,273.944,675.78l.126.009,142.3-8.751.107-.117v-5.773h-.126l-142.4,4.755L128.868,658.02h-.021l-.257.169-.781.506Z" transform="translate(-88.037 -456.392)" opacity="0.1"/>
    <path id="Path_61" data-name="Path 61" d="M126.91,664.91l147.034,11.252v-9.876L128.589,658.57l-.781.506Z" transform="translate(-88.037 -456.774)" opacity="0.1"/>
    <path id="Path_62" data-name="Path 62" d="M378.88,40.108,443.7,109.683l-2,122.383,5.506.665.092.012H452.8l.659-117.8,121.38,40.545,2.047,72.192,4.431.5,1.5.169-3.475-77.863L452.46,105.93,382.885,33.6h-4Z" transform="translate(-262.799 -23.305)" fill="#f1c0c0"/>
    <path id="Path_63" data-name="Path 63" d="M620.65,291.7l.5,2.252L742.53,334.5l2.047,72.192,4.431.5L745.533,333Z" transform="translate(-430.487 -202.319)" opacity="0.1"/>
    <path id="Path_64" data-name="Path 64" d="M378.88,40.108,443.7,109.683l-2,122.383,5.506.665,1.5-127.052L378.88,33.6Z" transform="translate(-262.799 -23.305)" opacity="0.1"/>
    <path id="Path_65" data-name="Path 65" d="M621.42,434l44.519,8.767.015,0,77.974,15.361,3.57-1.431-.012-.251-.233-4.979L621.466,426.05Z" transform="translate(-431.021 -295.502)" fill="#f1c0c0"/>
    <path id="Path_66" data-name="Path 66" d="M766.76,480.61l77.974,15.361,3.57-1.431-.012-.251Z" transform="translate(-531.826 -333.344)" opacity="0.1"/>
    <path id="Path_67" data-name="Path 67" d="M776.49,350.56l1.2,66.29.622,34.009,5.482-.184,3.45-.116-1.072-99.04-2.378-.791-.521-.169Z" transform="translate(-538.575 -243.143)" fill="#f1c0c0"/>
    <path id="Path_68" data-name="Path 68" d="M776.65,350.51v.015l1.155,66.29.622,34.009,5.482-.184V350.51Z" transform="translate(-538.686 -243.108)" opacity="0.1"/>
    <path id="Path_69" data-name="Path 69" d="M486.9,484.018a6.977,6.977,0,0,1,.919.6,6.078,6.078,0,0,1,.919,1.008c1.315,1.7,2.528,3.677,2.4,5.822a2.369,2.369,0,0,1-.683,1.685,3.063,3.063,0,0,1-2.032.484,4.326,4.326,0,0,1-2.252-.4c-.668-.4-1.226-1.174-2.016-1.155a1.034,1.034,0,0,1-.337,0c-.273-.089-.328-.447-.506-.674-.306-.408-.953-.306-1.434-.129a2.079,2.079,0,0,1-1.489.239,1.547,1.547,0,0,1-.647-.647,14.232,14.232,0,0,1-1.593-6.183c-.132-1.3-1.137-5.73,1.636-4.722a23,23,0,0,1,3.487,1.97Z" transform="translate(-334.848 -359.671)" fill="#3f3d56"/>
    <path id="Path_70" data-name="Path 70" d="M497.134,491.222a1.367,1.367,0,0,0,1.682-.067,2.534,2.534,0,0,0,.818-1.587c.306-.1.463.306.659.552.343.417,1.042.411,1.354.855.218.306.169.732.322,1.079.2.447.692.68,1.029,1.042a3.548,3.548,0,0,1,.674,1.345l.5,1.508a7.448,7.448,0,0,1,.46,1.952,2.528,2.528,0,0,1-.582,1.866,4.947,4.947,0,0,1-3.726.668,2.749,2.749,0,0,1-1.651-2.022,25.521,25.521,0,0,1-.34-2.7,10.593,10.593,0,0,0-.766-2.568c-.27-.637-1.011-1.587-1-2.264C496.79,490.876,496.95,491.078,497.134,491.222Z" transform="translate(-347.825 -366.438)" fill="#3f3d56"/>
    <path id="Path_71" data-name="Path 71" d="M492.539,475.93a5.06,5.06,0,0,1-.248-1.345,5.856,5.856,0,0,1,.843-2.6l-3.5.475a1.551,1.551,0,0,0-1.134.5,1.225,1.225,0,0,0,0,1.131,5.777,5.777,0,0,1,.417,1.094,5.46,5.46,0,0,0,.113.984,2.081,2.081,0,0,0,.45.634,21.248,21.248,0,0,1,2.5,3.714c-.021-.037,2.111-1.688,2.025-2.228-.049-.306-.665-.674-.861-.968A4.932,4.932,0,0,1,492.539,475.93Z" transform="translate(-342.13 -354.249)" fill="#be6f72"/>
    <path id="Path_72" data-name="Path 72" d="M444.915,358.04v3.018l-51.683,10.081-2.681,1.624H381.3v-1.7l50.779-12.269Z" transform="translate(-264.477 -248.331)" fill="#f1c0c0"/>
    <path id="Path_73" data-name="Path 73" d="M444.915,367.89l-51.683,10.081-2.681,1.624H381.3l51.156-10.948Z" transform="translate(-264.477 -255.163)" opacity="0.1"/>
    <path id="Path_74" data-name="Path 74" d="M445.1,722.126a4,4,0,0,0-4.872-1.036,1.282,1.282,0,0,0-.447.349c-.306.429-.11,1.02-.083,1.55.07,1.293-.959,2.344-1.884,3.248a4.456,4.456,0,0,0-1.226,1.661,1.556,1.556,0,0,0,.542,1.839,2.256,2.256,0,0,0,.84.233,9.061,9.061,0,0,0,2.972.083,3.22,3.22,0,0,0,2.359-1.642,1.732,1.732,0,0,1,.4-.653c.539-.426,1.367.074,1.979-.23.506-.251.527-.646.533-1.167A6.76,6.76,0,0,0,445.1,722.126Z" transform="translate(-306.154 -526.737)" fill="#2c8a40"/>
    <path id="Path_75" data-name="Path 75" d="M473.565,716.954a10.092,10.092,0,0,1,.478,3.135,3.025,3.025,0,0,1-.285,1.786,2.442,2.442,0,0,1-1.6.919,3.661,3.661,0,0,1-3.582-1,3.78,3.78,0,0,1-.646-2.844c.1-.824.306-1.789-.285-2.375-.153-.156-.352-.267-.493-.435a1.46,1.46,0,0,1-.092-1.4,6.068,6.068,0,0,0,.481-1.382c.024-.227,4.149.159,4.529.346.518.254.438.68.594,1.2C472.885,715.621,473.3,716.268,473.565,716.954Z" transform="translate(-327.268 -521.62)" fill="#2c8a40"/>
    <path id="Path_76" data-name="Path 76" d="M446.033,579.436a3.4,3.4,0,0,1,1.247,2.51c.346,2.62-.26,5.267-.306,7.912-.043,3.7,1.029,7.477.113,11.065-.548,2.145-.083,4.6-.6,6.763-.153.643-.435,1.25-.582,1.894a8.261,8.261,0,0,0,.447,4.216,4.355,4.355,0,0,1,.26,1.143,4.112,4.112,0,0,1-.447,1.728l-1.838,4.348c-.205.487-1.014.567-1.532.631a3.832,3.832,0,0,1-2.837-.4,3.63,3.63,0,0,1-1.082-2.559,39.221,39.221,0,0,1-.306-5.463,4.5,4.5,0,0,0-.126-1.419,12.438,12.438,0,0,1-.64-1.532,6.152,6.152,0,0,1,.371-2.145,6.462,6.462,0,0,0-.031-1.989c-.119-.981-.257-1.961-.414-2.935a13.009,13.009,0,0,1,.306-4.075,11.236,11.236,0,0,0-.306-3.867,10.662,10.662,0,0,1-.383,3.064c-.162.487-.4.953-.536,1.449-.628,2.228.711,4.566.521,6.873a17.024,17.024,0,0,0-.392,3.208,10.819,10.819,0,0,0,.692,2.234,2.9,2.9,0,0,1,0,2.283c-1,1.881-.251,4.44.64,6.37a8.608,8.608,0,0,1,.472,1.06,12.671,12.671,0,0,1,.113,2.712,1.71,1.71,0,0,1-1.437-.432c-.135-.141-.245-.306-.377-.453a3.743,3.743,0,0,0-1.281-.8,1.684,1.684,0,0,0-.919-.211,1.839,1.839,0,0,0-.873.542,8.545,8.545,0,0,1-.962.732,1.14,1.14,0,0,1-.49.218.432.432,0,0,1-.45-.23.541.541,0,0,1-.034-.159,24.253,24.253,0,0,1-.181-2.789c0-1.6-1.918-2.706-2.16-4.29-.193-1.278.165-2.58.046-3.867a18.806,18.806,0,0,1-.23-1.973c0-.429.1-.849.132-1.275a9.519,9.519,0,0,0-.021-1.419l-.1-1.48a12.787,12.787,0,0,0-.769-4.29,14.576,14.576,0,0,1-1.195-4.927c-.061-1.072-.021-2.145-.144-3.221a15.853,15.853,0,0,1-.285-2.911c.058-.754.306-1.483.365-2.237a11.431,11.431,0,0,0-.864-4.247,6.286,6.286,0,0,1-.184-4.265,1.4,1.4,0,0,1,.392-.57,1.708,1.708,0,0,1,.723-.27,56.108,56.108,0,0,1,16-1.02,5.314,5.314,0,0,1,2.467.769Z" transform="translate(-298.979 -428.122)" fill="#3f3d56"/>
    <circle id="Ellipse_13" data-name="Ellipse 13" cx="4.909" cy="4.909" r="4.909" transform="translate(124.75 108.952)" fill="#be6f72"/>
    <path id="Path_77" data-name="Path 77" d="M426.894,468.471a1.753,1.753,0,0,1,0,.855,1.935,1.935,0,0,1-.322.539,13.85,13.85,0,0,1-1.572,1.71,2.847,2.847,0,0,0,1.468,1.449,8.515,8.515,0,0,0,2.025.579,2.123,2.123,0,0,0,1.986-.343l2.727-1.633a5.445,5.445,0,0,0,1.134-.818,2.792,2.792,0,0,0,.791-1.918.527.527,0,0,0-.1-.362.644.644,0,0,0-.374-.156,3.323,3.323,0,0,1-2.145-1.872,9.916,9.916,0,0,1-.745-2.84l-2.908,1.532c-.432.23-.861.46-1.308.659-.285.129-.861.236-1.063.5C426.1,466.828,426.793,467.892,426.894,468.471Z" transform="translate(-298.185 -348.479)" fill="#be6f72"/>
    <path id="Path_78" data-name="Path 78" d="M422.752,479.5a3.231,3.231,0,0,0-.941,1.272,3.313,3.313,0,0,0,.172,1.866,55.668,55.668,0,0,1,1.839,7.9c.257,1.838.352,3.7.478,5.565.257,3.793.631,9.842,1.131,13.611a36.117,36.117,0,0,0,5.454-.65c3.407-.362,6.916.466,10.253-.306-.809-3.2-1.618-8.653-2.427-11.846a22.606,22.606,0,0,1-.742-3.846c-.07-.935-.028-1.872-.015-2.813.028-1.839-.074-3.677-.175-5.516a34.99,34.99,0,0,0-.742-6.389,1.189,1.189,0,0,0-.355-.7,1.439,1.439,0,0,0-1.069-.1,4.652,4.652,0,0,1-3.181-.754c-.4-.276-.947-.613-1.324-.306a1.318,1.318,0,0,0-.306.653,3.264,3.264,0,0,1-1.918,1.891,9.6,9.6,0,0,1-2.715.558,1.333,1.333,0,0,1-.843-.095c-.435-.267-.466-1.226-1.014-1.29C423.83,478.156,423.076,479.191,422.752,479.5Z" transform="translate(-295.918 -357.296)" fill="#3f3d56"/>
    <path id="Path_79" data-name="Path 79" d="M417.692,487.443c-1.131-1.082-1.627-2.651-2.451-3.983a8.87,8.87,0,0,0-2.117-2.329,6.314,6.314,0,0,1-1.152-.977c-.291-.358-.512-.836-.953-.974a1.152,1.152,0,0,0-1.033.285,10.164,10.164,0,0,0-.766.815c-1.3,1.345-3.582,1.532-4.612,3.089a2.531,2.531,0,0,0-.549,1.149,8.9,8.9,0,0,0,1.636,6.4,2.176,2.176,0,0,0,1.134.919,3.55,3.55,0,0,0,.221,1.685,45.088,45.088,0,0,0,2.087,5.684,13.748,13.748,0,0,0-.411,2.2c-.215,1.872-.015,3.772-.218,5.647-.165,1.532-.613,3.024-.628,4.559,0,.245.021.536.233.662a.7.7,0,0,0,.365.077l3.769.113a30.588,30.588,0,0,0,6.551-.276,2.731,2.731,0,0,0,.824-.26,2.768,2.768,0,0,0,1.088-2.145,18.669,18.669,0,0,0,.181-3.205c.457,1.443,1,2.935,2.378,3.56a5.335,5.335,0,0,0,2.362.285,44.477,44.477,0,0,0,5.145-.53.677.677,0,0,0,.751-.788l.018-1.673c.037-3.4-.806-6.646-1.134-10.029a21.8,21.8,0,0,0-.355-3.19c-.107-.438-.264-.867-.359-1.308a9.365,9.365,0,0,1-.153-1.308l-.239-3.37c-.113-1.56-.276-3.064-.4-4.621a22.375,22.375,0,0,0-.656-4.492c-.267-.919-.821-1.961-1.78-2.074a3.668,3.668,0,0,0-1.5.322,6.044,6.044,0,0,1-3.677-.015,5.172,5.172,0,0,0-1.146-.306,1.125,1.125,0,0,0-1.048.435,1.572,1.572,0,0,0-.162.772A40.868,40.868,0,0,1,417.692,487.443Z" transform="translate(-283.609 -357.756)" fill="#2c8a40"/>
    <path id="Path_80" data-name="Path 80" d="M413.38,501.1a18.605,18.605,0,0,0-4.682-3.953,3.74,3.74,0,0,0-2.326-.515,1.741,1.741,0,0,0-1.5,1.636,10.587,10.587,0,0,0,.423,1.431,15.043,15.043,0,0,0,.123,1.673,2.831,2.831,0,0,0,.613.941l2.169,2.571a13.964,13.964,0,0,0,3.021,2.9,4.541,4.541,0,0,0,4.014.561,4.933,4.933,0,0,0,2.2-2.019c.539-.858.919-1.8,1.425-2.681a13.312,13.312,0,0,1,3.064-3.717,3.4,3.4,0,0,1-1.839-.919,3.031,3.031,0,0,1-.291-.527l-.5-1.073a1.226,1.226,0,0,0-.919.346,7.7,7.7,0,0,1-.683.7c-.432.325-1.017.414-1.409.784a3.735,3.735,0,0,0-.411.515A3.438,3.438,0,0,1,413.38,501.1Z" transform="translate(-284.227 -371.325)" fill="#3f3d56"/>
    <path id="Path_81" data-name="Path 81" d="M453.518,470.673c1.063-1.94,1.014-4.265,1.318-6.456a2.947,2.947,0,0,1,.585-1.6,3.053,3.053,0,0,1,2.62-.613c.273.031.613.159.6.432a.552.552,0,0,1-.138.261,7.29,7.29,0,0,0-1.514,4.02c.481.334,1.226-.352,1.688,0,.306.257.165.766-.018,1.134q-.64,1.278-1.321,2.537a8.148,8.148,0,0,1-1.4,2.019c-.389.374-.846.668-1.241,1.036-.919.861-1.474,2.077-2.424,2.917a.5.5,0,0,1-.306.156.515.515,0,0,1-.322-.144,4.645,4.645,0,0,1-1.158-1.4c-.362-.668-.306-.864.264-1.336A10.129,10.129,0,0,0,453.518,470.673Z" transform="translate(-315.703 -347.301)" fill="#be6f72"/>
    <path id="Path_82" data-name="Path 82" d="M413.823,497.725c.184.113.411.242.613.147a.637.637,0,0,0,.205-.2,7.211,7.211,0,0,0,.87-1.514.583.583,0,0,0,.064-.245c0-.2-.175-.34-.337-.453a12.49,12.49,0,0,0-2.785-1.324,5.749,5.749,0,0,0-2.513-.5,2.4,2.4,0,0,0-1.676.852c-.613.787.414,1.026,1.057,1.311A40.864,40.864,0,0,1,413.823,497.725Z" transform="translate(-286.447 -369.263)" fill="#2c8a40"/>
    <path id="Path_83" data-name="Path 83" d="M423.669,517.707a.45.45,0,0,0,.129.386c.089-.435-.028-.895.064-1.333.135-.659.775-1.155.83-1.817C423.519,514.714,423.678,517,423.669,517.707Z" transform="translate(-297.259 -384.037)" opacity="0.1"/>
    <path id="Path_84" data-name="Path 84" d="M559.856,358.04v3.018l-12.459.757-.377-3.021Z" transform="translate(-379.418 -248.331)" opacity="0.2"/>
    <path id="Path_85" data-name="Path 85" d="M416.471,445.32c.778-.634.328-1.964.855-2.816a2.736,2.736,0,0,1,1.333-.919,6.063,6.063,0,0,1,1.946-.539,2.258,2.258,0,0,1,1.838.677c.2.227.334.5.521.738a1.992,1.992,0,0,0,1.93.668c.408-.092.83-.4.8-.818a1.156,1.156,0,0,0-.368-.656l-.876-.971a6.955,6.955,0,0,0-3.564-2.549,6.114,6.114,0,0,0-3.04.408c-.4.132-.84.328-.95.729-.074.276.037.576-.028.855-.126.555-.837.742-1.167,1.207s-.23,1.017-.325,1.532a13.385,13.385,0,0,0-.4,1.55c-.021.322.141.919.5,1.036S416.247,444.937,416.471,445.32Z" transform="translate(-291.231 -330.73)" fill="#3f3d56"/>
    <path id="Path_86" data-name="Path 86" d="M424.81,436.175a9.193,9.193,0,0,0-1.63-3.726,6.529,6.529,0,0,0-2.9-2.3,4.155,4.155,0,0,0-3.613.285,5.245,5.245,0,0,0-1.8,2.277,6.088,6.088,0,0,0-.166,5.442c.368-.447,1-.245,1.557-.408a16.227,16.227,0,0,0,1.955-.956C420.214,435.9,422.665,436.616,424.81,436.175Z" transform="translate(-290.641 -325.035)" fill="#fed253"/>
    <path id="Path_87" data-name="Path 87" d="M417.326,446.407a1.872,1.872,0,0,1,.276-1.584.2.2,0,0,1,.162-.073.211.211,0,0,1,.126.11,6.862,6.862,0,0,1,.576,1.128,1.17,1.17,0,0,0-1.226.475" transform="translate(-292.803 -335.363)" opacity="0.1"/>
    <path id="Path_88" data-name="Path 88" d="M440.564,441.632l-.11-1.094a.5.5,0,0,1,.021-.27.346.346,0,0,1,.447-.123.92.92,0,0,1,.359.359,6.44,6.44,0,0,1,.631,1.247,3.708,3.708,0,0,0-1.492.018" transform="translate(-308.88 -332.144)" opacity="0.1"/>
    <path id="Path_89" data-name="Path 89" d="M408.836,502.21v2.5l-2.111.141h-11.1V502.21Z" transform="translate(-274.41 -348.325)" opacity="0.1"/>
    <path id="Path_90" data-name="Path 90" d="M329.365,403.936v2.641H316.149L281.04,362.6V360.52h7.36Z" transform="translate(-194.939 -250.051)" fill="#f1c0c0"/>
    <path id="Path_91" data-name="Path 91" d="M329.365,403.936v2.641H316.149L281.04,362.6V360.52h7.36Z" transform="translate(-194.939 -250.051)" opacity="0.1"/>
    <path id="Path_92" data-name="Path 92" d="M329.365,403.936v2.641H316.149L281.04,362.6V360.52l35.3,43.416Z" transform="translate(-194.939 -250.051)" opacity="0.1"/>
    <path id="Path_93" data-name="Path 93" d="M298.864,729.137a.919.919,0,0,1-.8,1.082,5.46,5.46,0,0,0-2.359,1.226,1.686,1.686,0,0,0,0,2.393,2.326,2.326,0,0,0,1.226.334,8.305,8.305,0,0,0,4.094-.512c.9-.417,1.75-1.128,2.739-1.063.512.031,1.057.27,1.514.037s.585-.882.588-1.425a10.551,10.551,0,0,0-.506-3.337,13.407,13.407,0,0,0-2.228-.306l-2.362-.306c-.447-.058-1.413-.4-1.765-.021S298.864,728.692,298.864,729.137Z" transform="translate(-208.16 -531.171)" fill="#2c8a40"/>
    <path id="Path_94" data-name="Path 94" d="M352.975,698.57a7.394,7.394,0,0,0,.484,1.606,3.738,3.738,0,0,0,1.55,2.123,2.767,2.767,0,0,0,2.365-.113,1.949,1.949,0,0,0,.787-.6,2.371,2.371,0,0,0,.306-1.376,7.516,7.516,0,0,0-.613-3.465c-.466-.919-1.278-1.71-1.29-2.727l-2.792.539a.8.8,0,0,0-.411.162.708.708,0,0,0-.178.334A9.124,9.124,0,0,0,352.975,698.57Z" transform="translate(-248.173 -508.252)" fill="#2c8a40"/>
    <path id="Path_95" data-name="Path 95" d="M244.252,602.415a4.561,4.561,0,0,0,.447,2.9,2.241,2.241,0,0,0,2.537,1.076.371.371,0,0,0,.23-.175.432.432,0,0,0-.04-.306,4.522,4.522,0,0,1,.1-3.407c.061-.141.193-.307.337-.251a.306.306,0,0,1,.138.141,1.6,1.6,0,0,1,.214.846,3.145,3.145,0,0,0-.025.812c.058.263.34.512.585.4a.612.612,0,0,0,.279-.4c.683-1.976.374-4.137.061-6.2a.325.325,0,0,0-.365-.34c-1.446-.144-2.237-.49-3.064.855A8.4,8.4,0,0,0,244.252,602.415Z" transform="translate(-172.785 -441.207)" fill="#2c8a40"/>
    <path id="Path_96" data-name="Path 96" d="M297.539,595.468a18.79,18.79,0,0,0-.631,8.831l.322,2.654c.11.895.218,1.786.374,2.672a7.094,7.094,0,0,1,.162,1.388,7.435,7.435,0,0,1-.218,1.364,15.931,15.931,0,0,0-.322,2.85c-.034,1.532.156,3.064.276,4.6a51.18,51.18,0,0,1-.107,9.168,3.439,3.439,0,0,0,.5,2.363,3.038,3.038,0,0,1,.444.729c.23.7-.306,1.4-.444,2.123a2.145,2.145,0,0,0,1.783,2.451c2.451.291,4.97.159,7.179,1.281.233-.68-.276-1.452-.043-2.145.147-.429.552-.708.827-1.069a3.114,3.114,0,0,0,.527-1.869,6.831,6.831,0,0,0-.453-2.534,5.481,5.481,0,0,1-.613-2.062,2.606,2.606,0,0,0-.018-1.057,1.653,1.653,0,0,0-.4-.493,6.229,6.229,0,0,1-1.6-3.631,16.724,16.724,0,0,1,.129-4.026,6.841,6.841,0,0,1,1.158-3.6,23.083,23.083,0,0,1,.647-8.963c.08-.27.205-.582.481-.647a.687.687,0,0,1,.588.233,4.017,4.017,0,0,1,.919,1.728,3.768,3.768,0,0,1,.288,2.093c-.074.306-.221.576-.306.87a2.58,2.58,0,0,0,.092,1.8,1.729,1.729,0,0,1,.221.677,1.876,1.876,0,0,1-.184.588,2.709,2.709,0,0,0,.254,2.191,7.93,7.93,0,0,0,1.431,1.756,6.435,6.435,0,0,0,.2,3.542.447.447,0,0,1,.04.34c-.055.116-.2.159-.306.242-.306.251-.116.726.089,1.054a24.173,24.173,0,0,0,1.86,2.58c.613.732.558,2.145,1.471,2.408a2.755,2.755,0,0,0,1.164,0,3.053,3.053,0,0,0,2.347-1.2,3.216,3.216,0,0,1,.536-.971c.282-.245.646-.288.8-.582s-.018-.68.034-1.02.349-.613.444-.971c.227-.827-.738-1.508-.87-2.353-.19-1.226,1.354-2.145,1.29-3.371-.135-2.663-.221-5.338-.358-8a57.7,57.7,0,0,1-.074-7.167,10.079,10.079,0,0,0-.239-4.425c-.784-1.949-2.948-3.043-5.041-3.251a24.817,24.817,0,0,0-6.254.613A39.529,39.529,0,0,1,297.539,595.468Z" transform="translate(-209.164 -439.288)" fill="#3f3d56"/>
    <circle id="Ellipse_14" data-name="Ellipse 14" cx="4.909" cy="4.909" r="4.909" transform="translate(89.686 117.075)" fill="#fbbebe"/>
    <path id="Path_97" data-name="Path 97" d="M308.708,497.879a2.093,2.093,0,0,1-2,1.265,2.468,2.468,0,0,0,.735,2.056,8.726,8.726,0,0,0,8.353,2.865,4.121,4.121,0,0,0,1.645-.686A3.649,3.649,0,0,0,318.7,501.2a10.817,10.817,0,0,0,.12-2.559.662.662,0,0,0-.135-.472.674.674,0,0,0-.429-.141,7.438,7.438,0,0,1-3.027-.64,2.158,2.158,0,0,1-1.118-2.6,10.984,10.984,0,0,1-2.1.248c-.738.1-1.477.221-2.212.355a4.018,4.018,0,0,0-1.039.2c-.444.23-.279.116-.175.533A2.534,2.534,0,0,1,308.708,497.879Z" transform="translate(-216.11 -370.07)" fill="#fbbebe"/>
    <path id="Path_98" data-name="Path 98" d="M272.024,506.523a8.127,8.127,0,0,1-1.964-.218,2.758,2.758,0,0,1-1.612-1.076c-.227-.343-.374-.775-.735-.968-.591-.306-1.266.211-1.737.686a6.311,6.311,0,0,1-1.477,1.189c-.656.346-1.422.469-2.041.876a5.129,5.129,0,0,0-1.226,1.324l-4.342,5.914c-1.744,2.378-3.26,4.93-4.814,7.44-1.345,2.173-2.05,4.673-3.064,7.017a.784.784,0,0,0-.1.472c.037.159.23.288.365.2-.457.453-.055,1.226-.162,1.863a2.286,2.286,0,0,1-.729,1.143,5.762,5.762,0,0,1,2.022.1,6.2,6.2,0,0,1,1.912.919c.371-.058.337-.717.613-.962.165-.144.411-.126.628-.168.818-.159,1.143-1.143,1.771-1.7.524-.463,1.266-.613,1.82-1.048.9-.708,1.094-1.967,1.566-3.012.4-.885,1.033-1.658,1.385-2.565a11.053,11.053,0,0,1,.668-1.768,5.062,5.062,0,0,1,2.451-1.762,4.058,4.058,0,0,1,1.866-.5,17.33,17.33,0,0,0,.1,4.219c.107.49.257.968.386,1.456a27.406,27.406,0,0,1,.751,6.741,20.51,20.51,0,0,1,4.29-.515c1.137-.034,2.271.113,3.407.092,1.348-.025,2.681-.285,4.029-.377a7.527,7.527,0,0,1,3.95.613,37.529,37.529,0,0,1,.162-5.822l.325-3.046a18.719,18.719,0,0,1,.408-2.629c.178-.7.435-1.373.631-2.068a23.676,23.676,0,0,0,.432-7.621,9.605,9.605,0,0,0-1.167-3.769,10.2,10.2,0,0,0-.735-1.25,7.241,7.241,0,0,0-6.331-2.972,1.282,1.282,0,0,0-.454.1,1.511,1.511,0,0,0-.579.689A7.507,7.507,0,0,1,272.024,506.523Z" transform="translate(-175.691 -375.729)" fill="#3f3d56"/>
    <path id="Path_99" data-name="Path 99" d="M302.359,474.079c.138-.306.509-.42.735-.665.435-.466.239-1.21.306-1.839a2.641,2.641,0,0,1,1.747-2.016,5.643,5.643,0,0,1,2.758-.175,2.669,2.669,0,0,1,1.244.414c.159.117.306.267.457.374a1.226,1.226,0,0,0,1.667-.389c-1.085-1.305-2.286-2.684-3.934-3.086a8.068,8.068,0,0,0-1.719-.162,5.582,5.582,0,0,0-2.255.263,3.759,3.759,0,0,0-1.979,2.286,11.113,11.113,0,0,0-.481,3.064,11.545,11.545,0,0,0,0,2.084,5.762,5.762,0,0,0,1.023,2.626.8.8,0,0,0,.306.285C303.631,477.756,302.246,474.334,302.359,474.079Z" transform="translate(-212.081 -350.468)" fill="#3f3d56"/>
    <path id="Path_100" data-name="Path 100" d="M308.8,461.9a6.016,6.016,0,0,0-2.292-3.594,8.451,8.451,0,0,0-3.079-1.854,4.115,4.115,0,0,0-3.475.423,5.34,5.34,0,0,0-1.691,2.326,7.321,7.321,0,0,0-.738,3.371,3.634,3.634,0,0,0,1.645,2.917,3.1,3.1,0,0,1,1.593-1.027A78,78,0,0,1,308.8,461.9Z" transform="translate(-209.77 -343.343)" fill="#fed253"/>
    <path id="Path_101" data-name="Path 101" d="M303.246,472.72c.1,0,.162.1.211.184a7.771,7.771,0,0,1,.64,1.226c-.358.077-.974.162-1.152-.153C302.85,473.817,302.964,472.7,303.246,472.72Z" transform="translate(-213.507 -354.762)" opacity="0.1"/>
    <path id="Path_102" data-name="Path 102" d="M326.429,467.035c-.073.07-.159-.074-.159-.178v-1.189a.175.175,0,0,1,.021-.095.144.144,0,0,1,.1-.049c.248-.028.453.184.613.386a6.473,6.473,0,0,1,.628,1.045l-1.3-.04" transform="translate(-229.707 -349.77)" opacity="0.1"/>
    <path id="Path_103" data-name="Path 103" d="M357.36,516.881a8,8,0,0,1,.9-.739,13.59,13.59,0,0,1,2.828-1.152,3.733,3.733,0,0,0,2.292-1.9,4.505,4.505,0,0,0,.178-1.839,1.838,1.838,0,0,0-.135-.757,1.5,1.5,0,0,0-.484-.527,7,7,0,0,0-4.633-.934,29.039,29.039,0,0,0-10.237,2.555.888.888,0,0,0-.429.306.876.876,0,0,0-.083.426,7.048,7.048,0,0,0,.346,2.669c.423,1.091,1.293,1.97,1.658,3.083.165.5.221,1.03.365,1.532a2.145,2.145,0,0,0,.861,1.281c1.21.723,2.353-.248,3.193-1Z" transform="translate(-244.463 -379.929)" fill="#3f3d56"/>
    <path id="Path_104" data-name="Path 104" d="M303,515.45l-1.554-3.389a11.851,11.851,0,0,1-.588-1.449c-.178-.591-.264-1.2-.429-1.8-.545-1.979-1.921-3.628-2.592-5.568a1.057,1.057,0,0,0-.251-.469.818.818,0,0,0-.683-.123,10.671,10.671,0,0,0-2.528,1.281c-.4.184-.827.306-1.226.518a1.532,1.532,0,0,0-.821.977,2.389,2.389,0,0,0,.334,1.376,15.538,15.538,0,0,1,1.06,6.043,6.425,6.425,0,0,1-.861,3.983c-1.572,2.145-.567,5.295.021,7.89.07.306.153.637.2.962a8.848,8.848,0,0,1,.07,1.226,9.592,9.592,0,0,1-.653,4.042,4.523,4.523,0,0,0,1.838.521q2.669.34,5.359.478a5.835,5.835,0,0,0,1.682-.086,3.064,3.064,0,0,0,2.264-3,3.788,3.788,0,0,0,.895,2.359,3.565,3.565,0,0,0,2.35.723,43.687,43.687,0,0,0,7.078-.2,1.225,1.225,0,0,0,.435-.1c.454-.227.478-.852.441-1.354-.067-.941-.138-1.881-.251-2.816a11.52,11.52,0,0,1-.147-1.8,10.366,10.366,0,0,1,.306-1.839,20.852,20.852,0,0,0,.6-5.822,9.829,9.829,0,0,1-.058-1.437c.08-1.082.65-2.111.542-3.187a52.173,52.173,0,0,0-1.437-9.459,2.452,2.452,0,0,0-.837-1.443c-.613-.411-1.474-.2-2.176-.457a5.436,5.436,0,0,1-.935-.555,4.29,4.29,0,0,0-2.111-.65,1.792,1.792,0,0,0-1.532.558,2.226,2.226,0,0,0-.306.837c-.444,1.869-.965,3.717-1.486,5.565l-.5,1.771-1.339,4.756C303.042,514.816,303.13,514.972,303,515.45Z" transform="translate(-205.949 -374.254)" fill="#2c8a40"/>
    <path id="Path_105" data-name="Path 105" d="M329.089,400.25l29.64,31.147v2.641H345.513l-22.273-29.07" transform="translate(-224.208 -277.607)" fill="#f1c0c0"/>
    <path id="Path_106" data-name="Path 106" d="M329.089,400.25l29.64,31.147v2.641H345.513l-22.273-29.07" transform="translate(-224.208 -277.607)" opacity="0.1"/>
    <path id="Path_107" data-name="Path 107" d="M323.712,414.31l.095.034,21.9,26.805h13.026v2.641H345.513l-22.273-29.07Z" transform="translate(-224.208 -287.359)" opacity="0.1"/>
    <path id="Path_108" data-name="Path 108" d="M341.009,501.312c-1.072.469-2.264,1.069-2.586,2.2a1.1,1.1,0,0,0,1.085,1.474,3.677,3.677,0,0,0,1.474-.27l6.328-2.09c.172-.055.368-.138.411-.306a.527.527,0,0,0-.061-.306c-.2-.478-.389-1.456-.8-1.789-.337-.27-1.005-.175-1.413-.169A11.455,11.455,0,0,0,341.009,501.312Z" transform="translate(-238.095 -373.705)" fill="#2c8a40"/>
    <path id="Path_109" data-name="Path 109" d="M362.351,501.425a10.177,10.177,0,0,1,3.141.487,5.6,5.6,0,0,1,2.6,1.777,1.948,1.948,0,0,1,.411.8c.061.306,1.06.49.84.7.671-.107.512.208,1.192.2a2.252,2.252,0,0,0,1.823-.723,2.368,2.368,0,0,0,.359-1.5,2.552,2.552,0,0,0-.2-1.06,3.13,3.13,0,0,0-1.661-1.287l-5.473-2.5a3.635,3.635,0,0,0-1.011-.359,3.787,3.787,0,0,0-.892.021l-2.479.285a3.717,3.717,0,0,1,1.694,3.269" transform="translate(-253.796 -372.258)" fill="#3f3d56"/>
  </g>
</svg>
